<svg 
  aria-hidden="true" 
  focusable="false"   
  role="img" 
  xmlns="http://www.w3.org/2000/svg" 
  viewBox="-1 -4 15 18"
  height="15"
  width="15"
  >
<g><path fill="currentColor" d="M 11.4688 1.8725 v 1.1703 C 11.4688 4.0741 8.9003 4.9152 5.7344 4.9152 S 0 4.0741 0 3.0427 V 1.8725 C 0 0.8411 2.5685 0 5.7344 0 s 5.7344 0.8411 5.7344 1.8725 z M 11.4688 4.5056 v 2.6331 C 11.4688 8.1701 8.9003 9.0112 5.7344 9.0112 S 0 8.1701 0 7.1387 V 4.5056 c 1.232 0.8485 3.4869 1.2434 5.7344 1.2434 S 10.2368 5.3541 11.4688 4.5056 z m 0 4.096 v 2.6331 C 11.4688 12.2661 8.9003 13.1072 5.7344 13.1072 S 0 12.2661 0 11.2347 V 8.6016 c 1.232 0.8485 3.4869 1.2434 5.7344 1.2434 S 10.2368 9.4501 11.4688 8.6016 z"></path></g></svg>