<svg data-v-29081953="" xmlns="http://www.w3.org/2000/svg" viewBox="50 120 200 50"><!----><defs data-v-29081953=""><!----></defs><rect data-v-29081953="" fill="transparent" x="0" y="0" width="320px" height="150px" class="logo-background-square"></rect><defs data-v-29081953=""><!----></defs><g data-v-29081953="" id="aecc4f51-7ece-4fd3-a5ae-1fef8bfdb112" fill="#000000" transform="matrix(1.0766437928922976,0,0,1.0766437928922976,88.66291271843457,129.6749863752638)"><path d="M3.64 3.64L3.64 7.66L3.64 7.66Q4.40 7.66 4.91 7.57L4.91 7.57L4.91 7.57Q5.42 7.48 5.72 7.28L5.72 7.28L5.72 7.28Q6.02 7.08 6.15 6.78L6.15 6.78L6.15 6.78Q6.29 6.47 6.29 6.05L6.29 6.05L6.78 6.05L6.78 9.87L6.29 9.87L6.29 9.87Q6.29 9.45 6.17 9.14L6.17 9.14L6.17 9.14Q6.05 8.83 5.75 8.63L5.75 8.63L5.75 8.63Q5.45 8.43 4.94 8.32L4.94 8.32L4.94 8.32Q4.42 8.22 3.64 8.22L3.64 8.22L3.64 11.38L3.64 11.38Q3.64 11.84 3.75 12.14L3.75 12.14L3.75 12.14Q3.86 12.45 4.14 12.63L4.14 12.63L4.14 12.63Q4.41 12.82 4.86 12.90L4.86 12.90L4.86 12.90Q5.31 12.98 5.96 12.98L5.96 12.98L5.96 12.98Q6.71 12.98 7.22 12.87L7.22 12.87L7.22 12.87Q7.74 12.77 8.09 12.52L8.09 12.52L8.09 12.52Q8.44 12.26 8.65 11.85L8.65 11.85L8.65 11.85Q8.86 11.44 9.00 10.82L9.00 10.82L9.53 10.82L9.32 13.58L0.63 13.58L0.63 13.05L0.63 13.05Q1.12 13.03 1.42 12.96L1.42 12.96L1.42 12.96Q1.72 12.89 1.89 12.73L1.89 12.73L1.89 12.73Q2.06 12.56 2.11 12.25L2.11 12.25L2.11 12.25Q2.17 11.94 2.17 11.45L2.17 11.45L2.17 4.93L2.17 4.93Q2.17 4.44 2.12 4.14L2.12 4.14L2.12 4.14Q2.07 3.84 1.93 3.66L1.93 3.66L1.93 3.66Q1.78 3.49 1.50 3.42L1.50 3.42L1.50 3.42Q1.22 3.36 0.77 3.33L0.77 3.33L0.77 2.80L8.86 2.80L8.99 5.26L8.50 5.26L8.50 5.26Q8.41 4.70 8.22 4.35L8.22 4.35L8.22 4.35Q8.04 3.99 7.71 3.78L7.71 3.78L7.71 3.78Q7.38 3.57 6.87 3.49L6.87 3.49L6.87 3.49Q6.37 3.40 5.66 3.40L5.66 3.40L3.88 3.40L3.88 3.40Q3.64 3.40 3.64 3.64L3.64 3.64ZM13.19 9.51L13.19 11.38L13.19 11.38Q13.19 11.96 13.22 12.29L13.22 12.29L13.22 12.29Q13.24 12.61 13.36 12.79L13.36 12.79L13.36 12.79Q13.48 12.96 13.71 13.02L13.71 13.02L13.71 13.02Q13.94 13.08 14.35 13.10L14.35 13.10L14.35 13.58L10.68 13.58L10.68 13.10L10.68 13.10Q11.07 13.08 11.30 13.02L11.30 13.02L11.30 13.02Q11.54 12.96 11.66 12.80L11.66 12.80L11.66 12.80Q11.79 12.63 11.82 12.32L11.82 12.32L11.82 12.32Q11.86 12.01 11.86 11.48L11.86 11.48L11.86 9.62L11.86 9.62Q11.86 7.95 11.77 7.59L11.77 7.59L11.77 7.59Q11.73 7.41 11.67 7.29L11.67 7.29L11.67 7.29Q11.61 7.17 11.48 7.10L11.48 7.10L11.48 7.10Q11.35 7.04 11.16 7.02L11.16 7.02L11.16 7.02Q10.96 7 10.65 7L10.65 7L10.65 6.55L12.89 6.02L13.06 7.41L13.12 7.41L13.12 7.41Q13.65 6.75 14.36 6.38L14.36 6.38L14.36 6.38Q15.08 6.02 15.92 6.02L15.92 6.02L15.92 6.02Q16.56 6.02 17.09 6.23L17.09 6.23L17.09 6.23Q17.63 6.44 17.91 6.80L17.91 6.80L17.91 6.80Q18.14 7.13 18.24 7.64L18.24 7.64L18.24 7.64Q18.34 8.15 18.34 9.04L18.34 9.04L18.34 11.38L18.34 11.38Q18.34 11.96 18.38 12.29L18.38 12.29L18.38 12.29Q18.41 12.61 18.52 12.79L18.52 12.79L18.52 12.79Q18.63 12.96 18.87 13.02L18.87 13.02L18.87 13.02Q19.10 13.08 19.47 13.10L19.47 13.10L19.47 13.58L15.85 13.58L15.85 13.10L15.85 13.10Q16.24 13.09 16.47 13.03L16.47 13.03L16.47 13.03Q16.70 12.96 16.82 12.80L16.82 12.80L16.82 12.80Q16.94 12.63 16.98 12.31L16.98 12.31L16.98 12.31Q17.01 12.00 17.01 11.48L17.01 11.48L17.01 9.63L17.01 9.63Q17.01 8.83 16.93 8.29L16.93 8.29L16.93 8.29Q16.84 7.74 16.65 7.41L16.65 7.41L16.65 7.41Q16.46 7.07 16.16 6.92L16.16 6.92L16.16 6.92Q15.85 6.78 15.41 6.78L15.41 6.78L15.41 6.78Q14.78 6.78 14.26 7.10L14.26 7.10L14.26 7.10Q13.73 7.43 13.44 8.01L13.44 8.01L13.44 8.01Q13.37 8.15 13.32 8.27L13.32 8.27L13.32 8.27Q13.27 8.40 13.24 8.57L13.24 8.57L13.24 8.57Q13.22 8.74 13.20 8.95L13.20 8.95L13.20 8.95Q13.19 9.17 13.19 9.51L13.19 9.51ZM26.68 11.89L27.12 12.28L27.12 12.28Q25.93 13.72 24.16 13.72L24.16 13.72L24.16 13.72Q23.34 13.72 22.67 13.45L22.67 13.45L22.67 13.45Q21.99 13.17 21.51 12.68L21.51 12.68L21.51 12.68Q21.03 12.18 20.76 11.49L20.76 11.49L20.76 11.49Q20.50 10.79 20.50 9.95L20.50 9.95L20.50 9.95Q20.50 9.10 20.78 8.37L20.78 8.37L20.78 8.37Q21.06 7.64 21.57 7.13L21.57 7.13L21.57 7.13Q22.08 6.61 22.79 6.31L22.79 6.31L22.79 6.31Q23.49 6.02 24.33 6.02L24.33 6.02L24.33 6.02Q25.69 6.02 26.43 6.75L26.43 6.75L26.43 6.75Q27.17 7.49 27.17 8.86L27.17 8.86L27.17 8.86Q27.17 9.06 27.10 9.10L27.10 9.10L27.10 9.10Q27.02 9.14 26.74 9.14L26.74 9.14L22.13 9.14L22.13 9.14Q22.11 9.25 22.09 9.41L22.09 9.41L22.09 9.41Q22.08 9.58 22.08 9.77L22.08 9.77L22.08 9.77Q22.08 10.50 22.25 11.10L22.25 11.10L22.25 11.10Q22.43 11.69 22.76 12.11L22.76 12.11L22.76 12.11Q23.09 12.53 23.54 12.76L23.54 12.76L23.54 12.76Q24.00 12.99 24.56 12.99L24.56 12.99L24.56 12.99Q25.14 12.99 25.65 12.73L25.65 12.73L25.65 12.73Q26.15 12.47 26.68 11.89L26.68 11.89ZM22.23 8.50L24.81 8.50L24.81 8.50Q25.09 8.50 25.26 8.48L25.26 8.48L25.26 8.48Q25.42 8.47 25.51 8.43L25.51 8.43L25.51 8.43Q25.59 8.39 25.62 8.31L25.62 8.31L25.62 8.31Q25.65 8.23 25.65 8.11L25.65 8.11L25.65 8.11Q25.65 7.46 25.24 7.08L25.24 7.08L25.24 7.08Q24.82 6.69 24.11 6.69L24.11 6.69L24.11 6.69Q22.60 6.69 22.23 8.50L22.23 8.50ZM30.94 10.88L30.94 11.35L30.94 11.35Q30.94 11.93 30.97 12.26L30.97 12.26L30.97 12.26Q31.00 12.60 31.12 12.78L31.12 12.78L31.12 12.78Q31.23 12.95 31.46 13.01L31.46 13.01L31.46 13.01Q31.68 13.06 32.09 13.09L32.09 13.09L32.09 13.58L28.36 13.58L28.36 13.09L28.36 13.09Q28.77 13.08 29.01 13.01L29.01 13.01L29.01 13.01Q29.25 12.95 29.37 12.78L29.37 12.78L29.37 12.78Q29.50 12.61 29.53 12.30L29.53 12.30L29.53 12.30Q29.57 11.98 29.57 11.45L29.57 11.45L29.57 9.81L29.57 9.81Q29.57 8.86 29.55 8.33L29.55 8.33L29.55 8.33Q29.53 7.80 29.41 7.55L29.41 7.55L29.41 7.55Q29.29 7.29 29.04 7.25L29.04 7.25L29.04 7.25Q28.78 7.20 28.34 7.20L28.34 7.20L28.34 6.71L30.79 6.17L30.98 7.91L31.04 7.91L31.04 7.91Q31.22 7.49 31.49 7.14L31.49 7.14L31.49 7.14Q31.77 6.79 32.09 6.54L32.09 6.54L32.09 6.54Q32.41 6.30 32.76 6.16L32.76 6.16L32.76 6.16Q33.11 6.02 33.47 6.02L33.47 6.02L33.47 6.02Q33.92 6.02 34.18 6.24L34.18 6.24L34.18 6.24Q34.44 6.45 34.44 6.82L34.44 6.82L34.44 6.82Q34.44 7.15 34.23 7.34L34.23 7.34L34.23 7.34Q34.02 7.53 33.63 7.53L33.63 7.53L33.63 7.53Q33.40 7.53 33.25 7.48L33.25 7.48L33.25 7.48Q33.10 7.42 32.98 7.36L32.98 7.36L32.98 7.36Q32.86 7.29 32.75 7.24L32.75 7.24L32.75 7.24Q32.65 7.18 32.52 7.18L32.52 7.18L32.52 7.18Q32.14 7.18 31.77 7.67L31.77 7.67L31.77 7.67Q31.39 8.15 31.18 8.89L31.18 8.89L31.18 8.89Q31.07 9.30 31.00 9.81L31.00 9.81L31.00 9.81Q30.94 10.32 30.94 10.88L30.94 10.88ZM38.35 10.57L38.35 10.57L38.35 10.57Q38.93 10.57 39.26 10.04L39.26 10.04L39.26 10.04Q39.59 9.51 39.59 8.54L39.59 8.54L39.59 8.54Q39.59 7.59 39.26 7.06L39.26 7.06L39.26 7.06Q38.93 6.54 38.33 6.54L38.33 6.54L38.33 6.54Q37.73 6.54 37.37 7.07L37.37 7.07L37.37 7.07Q37.02 7.60 37.02 8.53L37.02 8.53L37.02 8.53Q37.02 9.45 37.38 10.01L37.38 10.01L37.38 10.01Q37.74 10.57 38.35 10.57ZM37.58 12.21L37.58 12.21L37.58 12.21Q37.91 12.24 38.19 12.26L38.19 12.26L38.19 12.26Q38.47 12.29 38.74 12.32L38.74 12.32L38.74 12.32Q39.02 12.35 39.29 12.39L39.29 12.39L39.29 12.39Q39.56 12.43 39.89 12.47L39.89 12.47L39.89 12.47Q40.89 12.63 41.50 13.25L41.50 13.25L41.50 13.25Q42.11 13.87 42.11 14.81L42.11 14.81L42.11 14.81Q42.11 15.99 41.18 16.60L41.18 16.60L41.18 16.60Q40.25 17.22 38.49 17.22L38.49 17.22L38.49 17.22Q37.70 17.22 37.05 17.08L37.05 17.08L37.05 17.08Q36.40 16.94 35.94 16.68L35.94 16.68L35.94 16.68Q35.48 16.42 35.22 16.06L35.22 16.06L35.22 16.06Q34.96 15.69 34.96 15.26L34.96 15.26L34.96 15.26Q34.96 14.97 35.06 14.71L35.06 14.71L35.06 14.71Q35.15 14.46 35.32 14.27L35.32 14.27L35.32 14.27Q35.49 14.08 35.72 13.97L35.72 13.97L35.72 13.97Q35.95 13.86 36.20 13.86L36.20 13.86L36.20 13.86Q36.68 13.86 37.06 14.15L37.06 14.15L37.06 14.15Q36.68 14.24 36.44 14.57L36.44 14.57L36.44 14.57Q36.20 14.90 36.20 15.32L36.20 15.32L36.20 15.32Q36.20 15.93 36.81 16.27L36.81 16.27L36.81 16.27Q37.42 16.60 38.54 16.60L38.54 16.60L38.54 16.60Q40.94 16.60 40.94 15.13L40.94 15.13L40.94 15.13Q40.94 14.57 40.56 14.20L40.56 14.20L40.56 14.20Q40.18 13.83 39.66 13.76L39.66 13.76L39.66 13.76Q39.33 13.72 38.97 13.67L38.97 13.67L38.97 13.67Q38.61 13.62 38.27 13.58L38.27 13.58L38.27 13.58Q37.93 13.54 37.63 13.51L37.63 13.51L37.63 13.51Q37.34 13.48 37.16 13.45L37.16 13.45L37.16 13.45Q36.37 13.37 35.97 13.03L35.97 13.03L35.97 13.03Q35.56 12.70 35.56 12.11L35.56 12.11L35.56 12.11Q35.56 11.62 35.97 11.24L35.97 11.24L35.97 11.24Q36.37 10.86 36.99 10.77L36.99 10.77L36.99 10.71L36.99 10.71Q36.68 10.58 36.41 10.35L36.41 10.35L36.41 10.35Q36.15 10.12 35.96 9.83L35.96 9.83L35.96 9.83Q35.77 9.53 35.66 9.19L35.66 9.19L35.66 9.19Q35.55 8.85 35.55 8.48L35.55 8.48L35.55 8.48Q35.55 7.95 35.75 7.50L35.75 7.50L35.75 7.50Q35.95 7.06 36.32 6.73L36.32 6.73L36.32 6.73Q36.69 6.40 37.20 6.21L37.20 6.21L37.20 6.21Q37.70 6.02 38.30 6.02L38.30 6.02L38.30 6.02Q38.92 6.02 39.47 6.21L39.47 6.21L39.47 6.21Q40.01 6.40 40.40 6.76L40.40 6.76L40.40 6.76Q40.88 6.37 41.24 6.20L41.24 6.20L41.24 6.20Q41.61 6.02 41.93 6.02L41.93 6.02L41.93 6.02Q42.43 6.02 42.73 6.25L42.73 6.25L42.73 6.25Q43.04 6.48 43.04 6.87L43.04 6.87L43.04 6.87Q43.04 7.11 42.88 7.25L42.88 7.25L42.88 7.25Q42.71 7.39 42.48 7.39L42.48 7.39L42.48 7.39Q42.28 7.39 42.15 7.32L42.15 7.32L42.15 7.32Q42.03 7.25 41.92 7.17L41.92 7.17L41.92 7.17Q41.82 7.10 41.71 7.03L41.71 7.03L41.71 7.03Q41.59 6.96 41.43 6.96L41.43 6.96L41.43 6.96Q41.09 6.96 40.74 7.20L40.74 7.20L40.74 7.20Q41.08 7.71 41.08 8.50L41.08 8.50L41.08 8.50Q41.08 9.69 40.33 10.37L40.33 10.37L40.33 10.37Q39.59 11.05 38.11 11.16L38.11 11.16L38.11 11.16Q37.25 11.23 36.92 11.34L36.92 11.34L36.92 11.34Q36.58 11.45 36.58 11.75L36.58 11.75L36.58 11.75Q36.58 11.97 36.83 12.07L36.83 12.07L36.83 12.07Q37.09 12.18 37.58 12.21ZM49.88 8.99L46.83 15.78L46.83 15.78Q46.19 17.22 44.83 17.22L44.83 17.22L44.83 17.22Q43.95 17.22 43.95 16.56L43.95 16.56L43.95 16.56Q43.95 16.21 44.19 16.05L44.19 16.05L44.19 16.05Q44.44 15.89 45.09 15.78L45.09 15.78L45.09 15.78Q45.39 15.74 45.60 15.66L45.60 15.66L45.60 15.66Q45.81 15.58 45.98 15.46L45.98 15.46L45.98 15.46Q46.14 15.34 46.28 15.16L46.28 15.16L46.28 15.16Q46.41 14.98 46.54 14.71L46.54 14.71L47.03 13.73L44.34 7.90L44.34 7.90Q44.16 7.50 44.02 7.27L44.02 7.27L44.02 7.27Q43.89 7.04 43.74 6.91L43.74 6.91L43.74 6.91Q43.60 6.78 43.41 6.73L43.41 6.73L43.41 6.73Q43.23 6.68 42.95 6.65L42.95 6.65L42.95 6.16L46.66 6.16L46.66 6.65L46.66 6.65Q45.72 6.65 45.72 7.11L45.72 7.11L45.72 7.11Q45.72 7.29 45.84 7.69L45.84 7.69L45.84 7.69Q45.95 8.08 46.12 8.48L46.12 8.48L47.66 12.21L47.73 12.21L49 9.06L49 9.06Q49.18 8.60 49.30 8.30L49.30 8.30L49.30 8.30Q49.42 8.01 49.48 7.82L49.48 7.82L49.48 7.82Q49.55 7.63 49.57 7.50L49.57 7.50L49.57 7.50Q49.59 7.38 49.59 7.27L49.59 7.27L49.59 7.27Q49.59 6.90 49.38 6.78L49.38 6.78L49.38 6.78Q49.18 6.65 48.61 6.65L48.61 6.65L48.61 6.16L51.69 6.16L51.69 6.65L51.69 6.65Q51.42 6.65 51.24 6.72L51.24 6.72L51.24 6.72Q51.06 6.79 50.87 7.04L50.87 7.04L50.87 7.04Q50.68 7.28 50.45 7.74L50.45 7.74L50.45 7.74Q50.22 8.20 49.88 8.99L49.88 8.99ZM63.08 11.07L63.14 11.07L66.78 2.80L69.92 2.80L69.92 3.33L69.92 3.33Q69.47 3.35 69.19 3.44L69.19 3.44L69.19 3.44Q68.92 3.54 68.78 3.77L68.78 3.77L68.78 3.77Q68.63 4.00 68.58 4.41L68.58 4.41L68.58 4.41Q68.53 4.82 68.53 5.45L68.53 5.45L68.53 10.93L68.53 10.93Q68.53 11.63 68.59 12.04L68.59 12.04L68.59 12.04Q68.64 12.45 68.80 12.67L68.80 12.67L68.80 12.67Q68.96 12.89 69.27 12.96L69.27 12.96L69.27 12.96Q69.57 13.03 70.06 13.05L70.06 13.05L70.06 13.58L65.52 13.58L65.52 13.05L65.52 13.05Q66.01 13.03 66.31 12.96L66.31 12.96L66.31 12.96Q66.61 12.88 66.78 12.67L66.78 12.67L66.78 12.67Q66.95 12.46 67.00 12.07L67.00 12.07L67.00 12.07Q67.06 11.69 67.06 11.03L67.06 11.03L67.06 4.54L66.92 4.54L62.83 13.72L62.52 13.72L58.51 4.54L58.45 4.54L58.45 10.93L58.45 10.93Q58.45 11.63 58.51 12.04L58.51 12.04L58.51 12.04Q58.56 12.45 58.72 12.67L58.72 12.67L58.72 12.67Q58.88 12.89 59.18 12.96L59.18 12.96L59.18 12.96Q59.49 13.03 59.98 13.05L59.98 13.05L59.98 13.58L56.07 13.58L56.07 13.05L56.07 13.05Q56.56 13.03 56.86 12.96L56.86 12.96L56.86 12.96Q57.16 12.88 57.33 12.67L57.33 12.67L57.33 12.67Q57.50 12.46 57.55 12.07L57.55 12.07L57.55 12.07Q57.61 11.69 57.61 11.03L57.61 11.03L57.61 5.35L57.61 5.35Q57.61 4.76 57.56 4.38L57.56 4.38L57.56 4.38Q57.51 3.99 57.36 3.77L57.36 3.77L57.36 3.77Q57.22 3.54 56.94 3.45L56.94 3.45L56.94 3.45Q56.66 3.36 56.21 3.33L56.21 3.33L56.21 2.80L59.56 2.80L63.08 11.07ZM74.87 6.02L74.87 6.02L74.87 6.02Q75.67 6.02 76.38 6.31L76.38 6.31L76.38 6.31Q77.10 6.59 77.64 7.10L77.64 7.10L77.64 7.10Q78.18 7.60 78.49 8.29L78.49 8.29L78.49 8.29Q78.81 8.99 78.81 9.81L78.81 9.81L78.81 9.81Q78.81 10.67 78.49 11.38L78.49 11.38L78.49 11.38Q78.18 12.10 77.64 12.61L77.64 12.61L77.64 12.61Q77.10 13.13 76.38 13.43L76.38 13.43L76.38 13.43Q75.67 13.72 74.87 13.72L74.87 13.72L74.87 13.72Q74.09 13.72 73.38 13.43L73.38 13.43L73.38 13.43Q72.67 13.15 72.14 12.63L72.14 12.63L72.14 12.63Q71.61 12.11 71.30 11.39L71.30 11.39L71.30 11.39Q70.99 10.67 70.99 9.81L70.99 9.81L70.99 9.81Q70.99 8.99 71.30 8.29L71.30 8.29L71.30 8.29Q71.61 7.59 72.14 7.08L72.14 7.08L72.14 7.08Q72.67 6.58 73.38 6.30L73.38 6.30L73.38 6.30Q74.09 6.02 74.87 6.02ZM74.87 6.69L74.87 6.69L74.87 6.69Q74.35 6.69 73.93 6.92L73.93 6.92L73.93 6.92Q73.50 7.14 73.20 7.55L73.20 7.55L73.20 7.55Q72.90 7.97 72.74 8.55L72.74 8.55L72.74 8.55Q72.58 9.13 72.58 9.83L72.58 9.83L72.58 9.83Q72.58 10.56 72.74 11.14L72.74 11.14L72.74 11.14Q72.90 11.73 73.20 12.14L73.20 12.14L73.20 12.14Q73.50 12.56 73.92 12.78L73.92 12.78L73.92 12.78Q74.34 13.01 74.87 13.01L74.87 13.01L74.87 13.01Q75.40 13.01 75.84 12.78L75.84 12.78L75.84 12.78Q76.27 12.56 76.58 12.14L76.58 12.14L76.58 12.14Q76.89 11.72 77.06 11.13L77.06 11.13L77.06 11.13Q77.22 10.54 77.22 9.83L77.22 9.83L77.22 9.83Q77.22 9.13 77.06 8.55L77.06 8.55L77.06 8.55Q76.89 7.98 76.58 7.57L76.58 7.57L76.58 7.57Q76.27 7.15 75.84 6.92L75.84 6.92L75.84 6.92Q75.40 6.69 74.87 6.69ZM86.25 13.72L86.25 12.40L86.20 12.40L86.20 12.40Q85.69 13.12 85.13 13.42L85.13 13.42L85.13 13.42Q84.56 13.72 83.79 13.72L83.79 13.72L83.79 13.72Q82.99 13.72 82.33 13.43L82.33 13.43L82.33 13.43Q81.66 13.15 81.18 12.63L81.18 12.63L81.18 12.63Q80.70 12.12 80.42 11.41L80.42 11.41L80.42 11.41Q80.15 10.70 80.15 9.86L80.15 9.86L80.15 9.86Q80.15 9.03 80.42 8.32L80.42 8.32L80.42 8.32Q80.70 7.62 81.18 7.10L81.18 7.10L81.18 7.10Q81.66 6.59 82.33 6.31L82.33 6.31L82.33 6.31Q83.01 6.02 83.79 6.02L83.79 6.02L83.79 6.02Q84.46 6.02 84.99 6.24L84.99 6.24L84.99 6.24Q85.51 6.47 86.00 6.96L86.00 6.96L86.00 5.53L86.00 5.53Q86.00 4.73 85.98 4.20L85.98 4.20L85.98 4.20Q85.96 3.67 85.92 3.47L85.92 3.47L85.92 3.47Q85.85 3.16 85.53 3.04L85.53 3.04L85.53 3.04Q85.20 2.91 84.48 2.91L84.48 2.91L84.48 2.49L87.35 1.96L87.35 10.04L87.35 10.04Q87.35 11.00 87.36 11.63L87.36 11.63L87.36 11.63Q87.37 12.25 87.44 12.52L87.44 12.52L87.44 12.52Q87.49 12.68 87.55 12.80L87.55 12.80L87.55 12.80Q87.61 12.91 87.73 12.97L87.73 12.97L87.73 12.97Q87.85 13.03 88.05 13.06L88.05 13.06L88.05 13.06Q88.26 13.09 88.58 13.09L88.58 13.09L88.58 13.57L86.25 13.72ZM85.97 10.23L85.97 9.31L85.97 9.31Q85.97 8.58 85.90 8.20L85.90 8.20L85.90 8.20Q85.82 7.83 85.60 7.55L85.60 7.55L85.60 7.55Q85.27 7.13 84.78 6.91L84.78 6.91L84.78 6.91Q84.28 6.69 83.79 6.69L83.79 6.69L83.79 6.69Q82.78 6.69 82.26 7.53L82.26 7.53L82.26 7.53Q81.73 8.36 81.73 9.79L81.73 9.79L81.73 9.79Q81.73 10.53 81.87 11.13L81.87 11.13L81.87 11.13Q82.00 11.73 82.26 12.16L82.26 12.16L82.26 12.16Q82.52 12.59 82.90 12.82L82.90 12.82L82.90 12.82Q83.29 13.05 83.79 13.05L83.79 13.05L83.79 13.05Q84.04 13.05 84.30 12.99L84.30 12.99L84.30 12.99Q84.56 12.94 84.81 12.82L84.81 12.82L84.81 12.82Q85.05 12.70 85.26 12.54L85.26 12.54L85.26 12.54Q85.47 12.38 85.61 12.17L85.61 12.17L85.61 12.17Q85.81 11.86 85.89 11.42L85.89 11.42L85.89 11.42Q85.97 10.99 85.97 10.23L85.97 10.23ZM95.80 11.89L96.24 12.28L96.24 12.28Q95.05 13.72 93.28 13.72L93.28 13.72L93.28 13.72Q92.46 13.72 91.78 13.45L91.78 13.45L91.78 13.45Q91.11 13.17 90.63 12.68L90.63 12.68L90.63 12.68Q90.15 12.18 89.88 11.49L89.88 11.49L89.88 11.49Q89.61 10.79 89.61 9.95L89.61 9.95L89.61 9.95Q89.61 9.10 89.89 8.37L89.89 8.37L89.89 8.37Q90.17 7.64 90.69 7.13L90.69 7.13L90.69 7.13Q91.20 6.61 91.90 6.31L91.90 6.31L91.90 6.31Q92.61 6.02 93.45 6.02L93.45 6.02L93.45 6.02Q94.81 6.02 95.55 6.75L95.55 6.75L95.55 6.75Q96.29 7.49 96.29 8.86L96.29 8.86L96.29 8.86Q96.29 9.06 96.22 9.10L96.22 9.10L96.22 9.10Q96.14 9.14 95.86 9.14L95.86 9.14L91.25 9.14L91.25 9.14Q91.22 9.25 91.21 9.41L91.21 9.41L91.21 9.41Q91.20 9.58 91.20 9.77L91.20 9.77L91.20 9.77Q91.20 10.50 91.37 11.10L91.37 11.10L91.37 11.10Q91.55 11.69 91.88 12.11L91.88 12.11L91.88 12.11Q92.20 12.53 92.66 12.76L92.66 12.76L92.66 12.76Q93.11 12.99 93.67 12.99L93.67 12.99L93.67 12.99Q94.26 12.99 94.77 12.73L94.77 12.73L94.77 12.73Q95.27 12.47 95.80 11.89L95.80 11.89ZM91.35 8.50L93.93 8.50L93.93 8.50Q94.21 8.50 94.37 8.48L94.37 8.48L94.37 8.48Q94.54 8.47 94.63 8.43L94.63 8.43L94.63 8.43Q94.71 8.39 94.74 8.31L94.74 8.31L94.74 8.31Q94.77 8.23 94.77 8.11L94.77 8.11L94.77 8.11Q94.77 7.46 94.35 7.08L94.35 7.08L94.35 7.08Q93.94 6.69 93.23 6.69L93.23 6.69L93.23 6.69Q91.71 6.69 91.35 8.50L91.35 8.50ZM99.88 1.96L99.88 11.40L99.88 11.40Q99.88 11.93 99.92 12.25L99.92 12.25L99.92 12.25Q99.96 12.57 100.09 12.75L100.09 12.75L100.09 12.75Q100.23 12.94 100.47 13.01L100.47 13.01L100.47 13.01Q100.72 13.08 101.12 13.09L101.12 13.09L101.12 13.58L97.26 13.58L97.26 13.09L97.26 13.09Q97.68 13.08 97.93 13.00L97.93 13.00L97.93 13.00Q98.18 12.92 98.33 12.75L98.33 12.75L98.33 12.75Q98.48 12.59 98.53 12.29L98.53 12.29L98.53 12.29Q98.57 11.98 98.57 11.49L98.57 11.49L98.57 5.46L98.57 5.46Q98.57 4.70 98.55 4.19L98.55 4.19L98.55 4.19Q98.53 3.68 98.49 3.50L98.49 3.50L98.49 3.50Q98.42 3.18 98.16 3.07L98.16 3.07L98.16 3.07Q97.90 2.95 97.23 2.95L97.23 2.95L97.23 2.48L99.88 1.96ZM104.43 1.96L104.43 11.40L104.43 11.40Q104.43 11.93 104.47 12.25L104.47 12.25L104.47 12.25Q104.51 12.57 104.64 12.75L104.64 12.75L104.64 12.75Q104.78 12.94 105.02 13.01L105.02 13.01L105.02 13.01Q105.27 13.08 105.67 13.09L105.67 13.09L105.67 13.58L101.81 13.58L101.81 13.09L101.81 13.09Q102.23 13.08 102.48 13.00L102.48 13.00L102.48 13.00Q102.73 12.92 102.88 12.75L102.88 12.75L102.88 12.75Q103.03 12.59 103.08 12.29L103.08 12.29L103.08 12.29Q103.12 11.98 103.12 11.49L103.12 11.49L103.12 5.46L103.12 5.46Q103.12 4.70 103.10 4.19L103.10 4.19L103.10 4.19Q103.08 3.68 103.04 3.50L103.04 3.50L103.04 3.50Q102.97 3.18 102.71 3.07L102.71 3.07L102.71 3.07Q102.45 2.95 101.78 2.95L101.78 2.95L101.78 2.48L104.43 1.96ZM109.24 6.02L109.24 11.35L109.24 11.35Q109.24 11.90 109.29 12.23L109.29 12.23L109.29 12.23Q109.34 12.56 109.48 12.75L109.48 12.75L109.48 12.75Q109.62 12.94 109.87 13.01L109.87 13.01L109.87 13.01Q110.12 13.08 110.54 13.09L110.54 13.09L110.54 13.58L106.53 13.58L106.53 13.09L106.53 13.09Q106.95 13.08 107.21 13.00L107.21 13.00L107.21 13.00Q107.48 12.92 107.63 12.75L107.63 12.75L107.63 12.75Q107.77 12.57 107.82 12.26L107.82 12.26L107.82 12.26Q107.87 11.94 107.87 11.45L107.87 11.45L107.87 9.66L107.87 9.66Q107.87 8.85 107.85 8.32L107.85 8.32L107.85 8.32Q107.83 7.80 107.77 7.60L107.77 7.60L107.77 7.60Q107.70 7.28 107.45 7.16L107.45 7.16L107.45 7.16Q107.20 7.04 106.50 7.04L106.50 7.04L106.50 6.55L109.24 6.02ZM107.63 3.18L107.63 3.18L107.63 3.18Q107.63 2.81 107.88 2.56L107.88 2.56L107.88 2.56Q108.14 2.31 108.50 2.31L108.50 2.31L108.50 2.31Q108.86 2.31 109.12 2.56L109.12 2.56L109.12 2.56Q109.37 2.81 109.37 3.18L109.37 3.18L109.37 3.18Q109.37 3.54 109.12 3.79L109.12 3.79L109.12 3.79Q108.86 4.05 108.50 4.05L108.50 4.05L108.50 4.05Q108.14 4.05 107.88 3.79L107.88 3.79L107.88 3.79Q107.63 3.54 107.63 3.18ZM113.85 9.51L113.85 11.38L113.85 11.38Q113.85 11.96 113.88 12.29L113.88 12.29L113.88 12.29Q113.90 12.61 114.02 12.79L114.02 12.79L114.02 12.79Q114.14 12.96 114.37 13.02L114.37 13.02L114.37 13.02Q114.60 13.08 115.01 13.10L115.01 13.10L115.01 13.58L111.34 13.58L111.34 13.10L111.34 13.10Q111.73 13.08 111.97 13.02L111.97 13.02L111.97 13.02Q112.20 12.96 112.32 12.80L112.32 12.80L112.32 12.80Q112.45 12.63 112.48 12.32L112.48 12.32L112.48 12.32Q112.52 12.01 112.52 11.48L112.52 11.48L112.52 9.62L112.52 9.62Q112.52 7.95 112.43 7.59L112.43 7.59L112.43 7.59Q112.39 7.41 112.33 7.29L112.33 7.29L112.33 7.29Q112.27 7.17 112.14 7.10L112.14 7.10L112.14 7.10Q112.01 7.04 111.82 7.02L111.82 7.02L111.82 7.02Q111.62 7 111.31 7L111.31 7L111.31 6.55L113.55 6.02L113.72 7.41L113.78 7.41L113.78 7.41Q114.31 6.75 115.02 6.38L115.02 6.38L115.02 6.38Q115.74 6.02 116.58 6.02L116.58 6.02L116.58 6.02Q117.22 6.02 117.75 6.23L117.75 6.23L117.75 6.23Q118.29 6.44 118.57 6.80L118.57 6.80L118.57 6.80Q118.80 7.13 118.90 7.64L118.90 7.64L118.90 7.64Q119.00 8.15 119.00 9.04L119.00 9.04L119.00 11.38L119.00 11.38Q119.00 11.96 119.04 12.29L119.04 12.29L119.04 12.29Q119.07 12.61 119.18 12.79L119.18 12.79L119.18 12.79Q119.29 12.96 119.53 13.02L119.53 13.02L119.53 13.02Q119.76 13.08 120.13 13.10L120.13 13.10L120.13 13.58L116.51 13.58L116.51 13.10L116.51 13.10Q116.90 13.09 117.13 13.03L117.13 13.03L117.13 13.03Q117.36 12.96 117.48 12.80L117.48 12.80L117.48 12.80Q117.60 12.63 117.64 12.31L117.64 12.31L117.64 12.31Q117.67 12.00 117.67 11.48L117.67 11.48L117.67 9.63L117.67 9.63Q117.67 8.83 117.59 8.29L117.59 8.29L117.59 8.29Q117.50 7.74 117.31 7.41L117.31 7.41L117.31 7.41Q117.12 7.07 116.82 6.92L116.82 6.92L116.82 6.92Q116.51 6.78 116.07 6.78L116.07 6.78L116.07 6.78Q115.44 6.78 114.92 7.10L114.92 7.10L114.92 7.10Q114.39 7.43 114.10 8.01L114.10 8.01L114.10 8.01Q114.03 8.15 113.98 8.27L113.98 8.27L113.98 8.27Q113.93 8.40 113.90 8.57L113.90 8.57L113.90 8.57Q113.88 8.74 113.86 8.95L113.86 8.95L113.86 8.95Q113.85 9.17 113.85 9.51L113.85 9.51ZM124.31 10.57L124.31 10.57L124.31 10.57Q124.89 10.57 125.22 10.04L125.22 10.04L125.22 10.04Q125.55 9.51 125.55 8.54L125.55 8.54L125.55 8.54Q125.55 7.59 125.22 7.06L125.22 7.06L125.22 7.06Q124.89 6.54 124.29 6.54L124.29 6.54L124.29 6.54Q123.69 6.54 123.33 7.07L123.33 7.07L123.33 7.07Q122.98 7.60 122.98 8.53L122.98 8.53L122.98 8.53Q122.98 9.45 123.34 10.01L123.34 10.01L123.34 10.01Q123.70 10.57 124.31 10.57ZM123.54 12.21L123.54 12.21L123.54 12.21Q123.87 12.24 124.15 12.26L124.15 12.26L124.15 12.26Q124.43 12.29 124.71 12.32L124.71 12.32L124.71 12.32Q124.98 12.35 125.25 12.39L125.25 12.39L125.25 12.39Q125.52 12.43 125.85 12.47L125.85 12.47L125.85 12.47Q126.85 12.63 127.46 13.25L127.46 13.25L127.46 13.25Q128.07 13.87 128.07 14.81L128.07 14.81L128.07 14.81Q128.07 15.99 127.14 16.60L127.14 16.60L127.14 16.60Q126.21 17.22 124.45 17.22L124.45 17.22L124.45 17.22Q123.66 17.22 123.01 17.08L123.01 17.08L123.01 17.08Q122.36 16.94 121.90 16.68L121.90 16.68L121.90 16.68Q121.44 16.42 121.18 16.06L121.18 16.06L121.18 16.06Q120.92 15.69 120.92 15.26L120.92 15.26L120.92 15.26Q120.92 14.97 121.02 14.71L121.02 14.71L121.02 14.71Q121.11 14.46 121.28 14.27L121.28 14.27L121.28 14.27Q121.45 14.08 121.68 13.97L121.68 13.97L121.68 13.97Q121.91 13.86 122.16 13.86L122.16 13.86L122.16 13.86Q122.64 13.86 123.02 14.15L123.02 14.15L123.02 14.15Q122.64 14.24 122.40 14.57L122.40 14.57L122.40 14.57Q122.16 14.90 122.16 15.32L122.16 15.32L122.16 15.32Q122.16 15.93 122.77 16.27L122.77 16.27L122.77 16.27Q123.38 16.60 124.50 16.60L124.50 16.60L124.50 16.60Q126.90 16.60 126.90 15.13L126.90 15.13L126.90 15.13Q126.90 14.57 126.52 14.20L126.52 14.20L126.52 14.20Q126.14 13.83 125.62 13.76L125.62 13.76L125.62 13.76Q125.29 13.72 124.93 13.67L124.93 13.67L124.93 13.67Q124.57 13.62 124.23 13.58L124.23 13.58L124.23 13.58Q123.89 13.54 123.59 13.51L123.59 13.51L123.59 13.51Q123.30 13.48 123.12 13.45L123.12 13.45L123.12 13.45Q122.33 13.37 121.93 13.03L121.93 13.03L121.93 13.03Q121.52 12.70 121.52 12.11L121.52 12.11L121.52 12.11Q121.52 11.62 121.93 11.24L121.93 11.24L121.93 11.24Q122.33 10.86 122.95 10.77L122.95 10.77L122.95 10.71L122.95 10.71Q122.64 10.58 122.37 10.35L122.37 10.35L122.37 10.35Q122.11 10.12 121.92 9.83L121.92 9.83L121.92 9.83Q121.73 9.53 121.62 9.19L121.62 9.19L121.62 9.19Q121.51 8.85 121.51 8.48L121.51 8.48L121.51 8.48Q121.51 7.95 121.71 7.50L121.71 7.50L121.71 7.50Q121.91 7.06 122.28 6.73L122.28 6.73L122.28 6.73Q122.65 6.40 123.16 6.21L123.16 6.21L123.16 6.21Q123.66 6.02 124.26 6.02L124.26 6.02L124.26 6.02Q124.88 6.02 125.43 6.21L125.43 6.21L125.43 6.21Q125.97 6.40 126.36 6.76L126.36 6.76L126.36 6.76Q126.84 6.37 127.20 6.20L127.20 6.20L127.20 6.20Q127.57 6.02 127.89 6.02L127.89 6.02L127.89 6.02Q128.39 6.02 128.70 6.25L128.70 6.25L128.70 6.25Q129.00 6.48 129.00 6.87L129.00 6.87L129.00 6.87Q129.00 7.11 128.84 7.25L128.84 7.25L128.84 7.25Q128.67 7.39 128.44 7.39L128.44 7.39L128.44 7.39Q128.24 7.39 128.11 7.32L128.11 7.32L128.11 7.32Q127.99 7.25 127.88 7.17L127.88 7.17L127.88 7.17Q127.78 7.10 127.67 7.03L127.67 7.03L127.67 7.03Q127.55 6.96 127.39 6.96L127.39 6.96L127.39 6.96Q127.05 6.96 126.70 7.20L126.70 7.20L126.70 7.20Q127.04 7.71 127.04 8.50L127.04 8.50L127.04 8.50Q127.04 9.69 126.29 10.37L126.29 10.37L126.29 10.37Q125.55 11.05 124.07 11.16L124.07 11.16L124.07 11.16Q123.21 11.23 122.88 11.34L122.88 11.34L122.88 11.34Q122.54 11.45 122.54 11.75L122.54 11.75L122.54 11.75Q122.54 11.97 122.79 12.07L122.79 12.07L122.79 12.07Q123.05 12.18 123.54 12.21ZM142.60 10.82L142.39 13.58L133.35 13.58L133.35 13.05L133.35 13.05Q133.84 13.03 134.14 12.96L134.14 12.96L134.14 12.96Q134.44 12.89 134.61 12.73L134.61 12.73L134.61 12.73Q134.78 12.56 134.83 12.25L134.83 12.25L134.83 12.25Q134.89 11.94 134.89 11.45L134.89 11.45L134.89 4.93L134.89 4.93Q134.89 4.44 134.84 4.14L134.84 4.14L134.84 4.14Q134.79 3.84 134.65 3.66L134.65 3.66L134.65 3.66Q134.50 3.49 134.22 3.42L134.22 3.42L134.22 3.42Q133.94 3.36 133.49 3.33L133.49 3.33L133.49 2.80L137.75 2.80L137.75 3.33L137.75 3.33Q137.30 3.35 137.03 3.42L137.03 3.42L137.03 3.42Q136.75 3.49 136.61 3.67L136.61 3.67L136.61 3.67Q136.46 3.85 136.41 4.17L136.41 4.17L136.41 4.17Q136.36 4.49 136.36 5.03L136.36 5.03L136.36 11.06L136.36 11.06Q136.36 11.65 136.48 12.02L136.48 12.02L136.48 12.02Q136.60 12.39 136.89 12.59L136.89 12.59L136.89 12.59Q137.17 12.80 137.65 12.87L137.65 12.87L137.65 12.87Q138.12 12.95 138.85 12.95L138.85 12.95L138.85 12.95Q139.65 12.95 140.20 12.86L140.20 12.86L140.20 12.86Q140.74 12.77 141.11 12.54L141.11 12.54L141.11 12.54Q141.48 12.31 141.70 11.89L141.70 11.89L141.70 11.89Q141.92 11.48 142.07 10.82L142.07 10.82L142.60 10.82ZM147.78 10.54L147.78 9.44L147.78 9.44Q146.99 9.74 146.43 10.04L146.43 10.04L146.43 10.04Q145.88 10.33 145.54 10.63L145.54 10.63L145.54 10.63Q145.21 10.92 145.06 11.21L145.06 11.21L145.06 11.21Q144.91 11.51 144.91 11.82L144.91 11.82L144.91 11.82Q144.91 12.28 145.22 12.57L145.22 12.57L145.22 12.57Q145.53 12.87 146.03 12.87L146.03 12.87L146.03 12.87Q146.40 12.87 146.71 12.68L146.71 12.68L146.71 12.68Q147.03 12.50 147.27 12.19L147.27 12.19L147.27 12.19Q147.50 11.87 147.64 11.45L147.64 11.45L147.64 11.45Q147.78 11.02 147.78 10.54L147.78 10.54ZM145.77 9.72L147.78 8.83L147.78 8.26L147.78 8.26Q147.78 6.55 146.33 6.55L146.33 6.55L146.33 6.55Q146.09 6.55 145.92 6.59L145.92 6.59L145.92 6.59Q145.75 6.64 145.64 6.73L145.64 6.73L145.64 6.73Q145.53 6.83 145.44 7.01L145.44 7.01L145.44 7.01Q145.35 7.20 145.26 7.46L145.26 7.46L145.26 7.46Q145.11 7.87 144.96 8.00L144.96 8.00L144.96 8.00Q144.82 8.13 144.54 8.13L144.54 8.13L144.54 8.13Q143.84 8.13 143.84 7.43L143.84 7.43L143.84 7.43Q143.84 6.76 144.55 6.39L144.55 6.39L144.55 6.39Q145.26 6.02 146.58 6.02L146.58 6.02L146.58 6.02Q147.98 6.02 148.57 6.52L148.57 6.52L148.57 6.52Q149.16 7.01 149.16 8.20L149.16 8.20L149.16 11.34L149.16 11.34Q149.16 12.94 149.79 12.94L149.79 12.94L149.79 12.94Q149.98 12.94 150.16 12.89L150.16 12.89L150.16 12.89Q150.35 12.84 150.47 12.63L150.47 12.63L150.67 12.96L150.67 12.96Q150.50 13.29 150.05 13.50L150.05 13.50L150.05 13.50Q149.60 13.72 149.11 13.72L149.11 13.72L149.11 13.72Q148.50 13.72 148.20 13.33L148.20 13.33L148.20 13.33Q147.90 12.94 147.90 12.22L147.90 12.22L147.83 12.22L147.83 12.22Q147.46 12.91 146.82 13.31L146.82 13.31L146.82 13.31Q146.17 13.71 145.39 13.71L145.39 13.71L145.39 13.71Q144.51 13.71 144.00 13.26L144.00 13.26L144.00 13.26Q143.50 12.81 143.50 12.05L143.50 12.05L143.50 12.05Q143.50 11.72 143.62 11.41L143.62 11.41L143.62 11.41Q143.74 11.10 144.00 10.82L144.00 10.82L144.00 10.82Q144.27 10.54 144.70 10.27L144.70 10.27L144.70 10.27Q145.14 10.00 145.77 9.72L145.77 9.72ZM153.30 9.41L153.30 10.65L153.30 10.65Q153.30 11.19 153.45 11.63L153.45 11.63L153.45 11.63Q153.61 12.07 153.88 12.38L153.88 12.38L153.88 12.38Q154.15 12.70 154.54 12.88L154.54 12.88L154.54 12.88Q154.92 13.06 155.37 13.06L155.37 13.06L155.37 13.06Q155.86 13.06 156.26 12.84L156.26 12.84L156.26 12.84Q156.66 12.61 156.95 12.20L156.95 12.20L156.95 12.20Q157.23 11.79 157.40 11.21L157.40 11.21L157.40 11.21Q157.56 10.63 157.56 9.91L157.56 9.91L157.56 9.91Q157.56 9.20 157.39 8.60L157.39 8.60L157.39 8.60Q157.22 8.01 156.93 7.58L156.93 7.58L156.93 7.58Q156.63 7.15 156.22 6.92L156.22 6.92L156.22 6.92Q155.81 6.68 155.32 6.68L155.32 6.68L155.32 6.68Q154.74 6.68 154.29 6.95L154.29 6.95L154.29 6.95Q153.85 7.22 153.61 7.71L153.61 7.71L153.61 7.71Q153.30 8.33 153.30 9.41L153.30 9.41ZM153.27 1.96L153.27 7.15L153.33 7.15L153.33 7.15Q153.78 6.57 154.32 6.29L154.32 6.29L154.32 6.29Q154.85 6.02 155.57 6.02L155.57 6.02L155.57 6.02Q156.32 6.02 156.98 6.31L156.98 6.31L156.98 6.31Q157.63 6.61 158.11 7.13L158.11 7.13L158.11 7.13Q158.59 7.64 158.87 8.35L158.87 8.35L158.87 8.35Q159.14 9.06 159.14 9.87L159.14 9.87L159.14 9.87Q159.14 10.70 158.86 11.40L158.86 11.40L158.86 11.40Q158.58 12.11 158.10 12.63L158.10 12.63L158.10 12.63Q157.61 13.15 156.95 13.44L156.95 13.44L156.95 13.44Q156.30 13.73 155.53 13.73L155.53 13.73L155.53 13.73Q154.73 13.73 154.04 13.44L154.04 13.44L154.04 13.44Q153.34 13.15 152.89 12.64L152.89 12.64L152.24 13.58L151.93 13.58L151.93 5.12L151.93 5.12Q151.93 3.71 151.75 3.32L151.75 3.32L151.75 3.32Q151.70 3.22 151.65 3.16L151.65 3.16L151.65 3.16Q151.59 3.09 151.48 3.04L151.48 3.04L151.48 3.04Q151.37 3.00 151.17 2.95L151.17 2.95L151.17 2.95Q150.98 2.91 150.64 2.87L150.64 2.87L150.64 2.52L153.27 1.96Z"></path></g><defs data-v-29081953=""><linearGradient data-v-29081953="" gradientTransform="rotate(25)" id="d62171db-1f7d-48f0-82d3-96333561fbfe" x1="0%" y1="0%" x2="100%" y2="0%"><stop data-v-29081953="" offset="0%" stop-color="#288B58" stop-opacity="1"></stop><stop data-v-29081953="" offset="100%" stop-color="#1522F1" stop-opacity="1"></stop></linearGradient></defs><g data-v-29081953="" id="46ea7f91-f495-4306-8d8c-485364bebe28" stroke="none" fill="url(#d62171db-1f7d-48f0-82d3-96333561fbfe)" transform="matrix(0.40379109225358756,0,0,0.40379109225358756,37.981044538732064,129.8104450022354)"><path style="text-indent:0;text-transform:none;block-progression:tb" d="M50 11.031l-1.625 2.813-3.719 6.469-.531.937.531.938 25.75 44.593h-24.75l-.531.938-3.719 6.5L39.781 77H43l41.875.031L88.094 77l-1.625-2.813-34.844-60.343L50 11.03zM43.094 23l-1.625 2.813L6.625 86.186 5 88.97h11.813l.53-.938 25.75-44.594 11.844 20.47.5.937H67.25l-1.625-2.781-20.906-36.25L43.094 23zm-.125 24.125l-1.594 2.813-20.938 36.218-1.625 2.813H95l-1.625-2.813-3.719-6.469-.562-.937H36.53l11.813-20.469.531-.937-.531-.938-3.75-6.468-1.625-2.813z" overflow="visible" color="#000"></path></g><defs data-v-29081953=""><!----></defs><g data-v-29081953="" id="ff55f9c6-85b3-44bf-ba0a-f6aa2eba12bd" fill="#000000" transform="matrix(0.42797371230250353,0,0,0.42797371230250353,89.17856828143405,156.97366794310454)"><path d="M0.38 12.39C0.38 12.63 0.42 12.68 0.62 12.68C0.94 12.68 1.69 12.64 2.41 12.64C3.07 12.64 3.86 12.68 4.09 12.68C4.26 12.68 4.28 12.61 4.28 12.40C4.28 12.24 4.26 12.18 4.09 12.18L3.12 12.18C3.02 12.18 3.00 9.55 3.00 7.76L3.00 5.87C3.00 5.14 3.02 3.70 3.12 3.70L4.03 3.70C4.26 3.70 4.28 3.68 4.28 3.49C4.28 3.25 4.26 3.19 4.09 3.19C3.77 3.19 3.09 3.23 2.44 3.23C1.62 3.23 0.91 3.19 0.69 3.19C0.50 3.19 0.43 3.21 0.43 3.44C0.43 3.68 0.52 3.70 0.69 3.70L1.61 3.70C1.65 3.70 1.72 4.79 1.72 5.71L1.72 7.08C1.72 8.92 1.71 12.18 1.60 12.18L0.67 12.18C0.45 12.18 0.38 12.19 0.38 12.39ZM12.18 12.39C12.18 12.63 12.19 12.68 12.39 12.68C12.57 12.68 12.95 12.64 13.57 12.64C14.20 12.64 14.76 12.68 15.08 12.68C15.25 12.68 15.25 12.61 15.25 12.40C15.25 12.24 15.25 12.18 15.08 12.18L13.87 12.18C13.83 12.18 13.82 11.54 13.82 10.79C13.82 9.46 13.83 7.48 13.83 5.99C13.83 5.25 13.83 4.84 13.85 4.28C13.85 4.02 13.92 4.14 14.04 4.28L20.93 12.66C21.01 12.75 21.10 12.89 21.21 12.89C21.32 12.89 21.39 12.77 21.39 12.54C21.39 12.39 21.56 6.65 21.57 4.48C21.57 4.06 21.60 3.70 21.63 3.70L22.26 3.70C22.48 3.70 22.54 3.68 22.54 3.49C22.54 3.25 22.54 3.19 22.34 3.19C22.15 3.19 21.71 3.23 21.15 3.23C20.54 3.23 19.74 3.19 19.64 3.19C19.47 3.19 19.47 3.26 19.47 3.47C19.47 3.64 19.47 3.70 19.64 3.70L20.94 3.70C20.96 3.70 20.96 4.33 20.96 4.44C20.96 5.85 20.99 8.33 20.99 9.70L20.99 10.29C20.99 10.57 20.97 10.65 20.75 10.37L15.06 3.39C14.95 3.25 14.92 3.19 14.76 3.19C14.67 3.19 14.29 3.23 13.99 3.23C13.69 3.23 12.61 3.19 12.42 3.19C12.25 3.19 12.22 3.26 12.22 3.47C12.22 3.64 12.25 3.70 12.42 3.70L13.33 3.70C13.33 4.17 13.29 8.53 13.22 10.79C13.19 11.69 13.20 12.18 13.09 12.18L12.45 12.18C12.22 12.18 12.18 12.19 12.18 12.39ZM30.58 3.49C30.58 3.72 30.69 3.74 30.86 3.74L31.47 3.74C31.53 3.74 31.60 4.79 31.60 5.71C31.60 5.80 31.65 8.27 31.65 9.83L31.65 11.17C31.65 11.84 31.64 12.18 31.58 12.18L31.00 12.18C30.77 12.18 30.70 12.19 30.70 12.39C30.70 12.63 30.72 12.68 30.91 12.68C31.12 12.68 31.96 12.64 32.38 12.64C32.80 12.64 33.74 12.68 34.06 12.68C34.23 12.68 34.26 12.61 34.26 12.40C34.26 12.24 34.23 12.18 34.06 12.18L32.93 12.18C32.87 12.18 32.89 10.16 32.84 8.33C32.84 8.08 32.83 8.09 33.03 8.09L35.45 8.09C36.15 8.09 36.18 8.19 36.18 8.30L36.18 9.16C36.18 9.28 36.36 9.28 36.47 9.28C36.57 9.28 36.69 9.28 36.69 9.17C36.69 8.99 36.67 8.33 36.67 7.83C36.67 7.32 36.69 6.82 36.69 6.69C36.69 6.58 36.58 6.58 36.46 6.58C36.29 6.58 36.18 6.58 36.18 6.71L36.18 7.45C36.18 7.62 35.73 7.63 35.45 7.63L33.03 7.63C32.82 7.63 32.84 7.66 32.84 7.45C32.83 7.13 32.82 6.15 32.82 5.26C32.82 4.52 32.83 3.71 32.90 3.71C34.30 3.71 36.48 3.75 36.78 3.79C36.78 3.96 36.74 4.82 36.74 4.89C36.74 5.04 36.81 5.10 36.99 5.10C37.18 5.10 37.25 5.08 37.25 4.94C37.25 3.85 37.31 3.36 37.31 3.09C37.31 2.93 37.23 2.90 37.03 2.90C36.90 2.90 36.83 2.90 36.81 3.11C36.79 3.25 36.86 3.25 35.91 3.25C35.31 3.25 33.03 3.29 32.28 3.29C31.79 3.29 30.86 3.25 30.76 3.25C30.63 3.25 30.58 3.30 30.58 3.49ZM45.35 8.15C45.35 11.17 47.68 12.80 49.94 12.80C52.72 12.80 54.70 10.89 54.70 8.06C54.70 5.33 52.95 3.11 50.15 3.11C47.54 3.11 45.35 5.10 45.35 8.15ZM46.75 7.77C46.75 5.64 48.03 3.58 50.01 3.58C52.25 3.58 53.33 5.81 53.33 7.94C53.33 10.08 52.22 12.32 49.95 12.32C47.96 12.32 46.75 10.28 46.75 7.77ZM62.80 3.51C62.80 3.72 62.87 3.79 63.07 3.79L63.88 3.77C63.98 3.77 64.02 6.61 64.02 8.55L64.02 10.42C64.02 11.30 64.01 12.18 63.97 12.18L63.36 12.18C63.14 12.18 63.07 12.19 63.07 12.39C63.07 12.63 63.11 12.68 63.31 12.68C63.43 12.68 64.26 12.64 64.68 12.64C65.10 12.64 65.87 12.68 66.19 12.68C66.36 12.68 66.39 12.61 66.39 12.40C66.39 12.24 66.36 12.18 66.19 12.18L65.38 12.18C65.31 12.18 65.23 9.18 65.23 8.37C65.23 8.30 65.23 8.26 65.34 8.26C65.73 8.26 66.33 8.27 66.63 8.27C68.87 8.32 69.01 10.00 69.01 11.68L69.01 12.49C69.01 12.61 69.06 12.64 69.16 12.64C69.16 12.64 70.60 12.68 71.08 12.68C71.25 12.68 71.30 12.64 71.30 12.53C71.30 12.24 71.25 12.18 71.09 12.18L70.45 12.18C70.35 12.18 70.32 12.14 70.29 11.31C70.21 8.99 68.84 8.34 67.93 8.05C67.79 8.01 67.82 8.01 67.93 7.95C68.52 7.69 69.83 6.94 69.83 5.63C69.83 3.63 68.14 3.21 66.74 3.21C66.42 3.21 65.13 3.29 64.71 3.29C64.29 3.29 63.31 3.26 63.08 3.26C62.90 3.26 62.80 3.28 62.80 3.51ZM65.23 7.80L65.23 4.40C65.23 4.05 65.25 3.68 65.30 3.68C65.51 3.65 65.79 3.65 66.01 3.65C67.31 3.65 68.56 4.47 68.56 5.82C68.56 6.99 68.01 7.57 67.35 7.88C67.31 7.90 67.27 7.90 67.20 7.90C66.72 7.88 66.01 7.88 65.41 7.87C65.24 7.87 65.23 7.85 65.23 7.80ZM78.71 12.39C78.71 12.63 78.74 12.68 78.93 12.68C79.17 12.68 79.67 12.64 80.09 12.64C80.51 12.64 81.00 12.68 81.33 12.68C81.49 12.68 81.52 12.61 81.52 12.40C81.52 12.24 81.49 12.18 81.33 12.18L80.36 12.18C80.30 12.18 80.29 11.54 80.29 10.79C80.29 8.96 80.33 6.13 80.40 4.28C80.43 3.88 80.46 3.91 80.60 4.27L83.86 12.32C83.96 12.54 84.03 12.74 84.14 12.74C84.24 12.74 84.31 12.63 84.39 12.45C84.73 11.79 84.91 11.75 85.18 11.09L87.77 4.47C87.89 4.16 87.93 4.02 87.95 4.47C87.98 5.66 88.02 8.47 88.02 9.74C88.02 10.99 87.98 12.18 87.92 12.18L87.29 12.18C87.07 12.18 87.00 12.19 87.00 12.39C87.00 12.63 87.02 12.68 87.22 12.68C87.42 12.68 88.12 12.64 88.72 12.64C89.14 12.64 89.89 12.68 90.22 12.68C90.38 12.68 90.41 12.61 90.41 12.40C90.41 12.22 90.36 12.18 90.19 12.18L89.46 12.18C89.35 12.18 89.25 8.44 89.25 6.03L89.25 4.77C89.25 4.17 89.28 3.77 89.32 3.70L89.98 3.70C90.20 3.70 90.24 3.68 90.24 3.49C90.24 3.25 90.23 3.19 90.03 3.19C89.71 3.19 89.03 3.23 88.61 3.23L87.93 3.23C87.71 3.23 87.68 3.29 87.57 3.58L84.83 10.72C84.74 10.95 84.71 11.02 84.60 10.74L81.66 3.40C81.59 3.22 81.54 3.19 81.40 3.19C81.31 3.19 80.82 3.23 80.51 3.23C80.01 3.23 79.16 3.19 78.96 3.19C78.82 3.19 78.82 3.26 78.82 3.47C78.82 3.64 78.82 3.70 78.96 3.70L79.66 3.70C79.93 3.70 79.93 3.72 79.93 3.84C79.93 4.82 79.72 9.94 79.67 10.79C79.63 11.55 79.63 12.18 79.58 12.18L79.00 12.18C78.78 12.18 78.71 12.19 78.71 12.39ZM98.31 12.39C98.31 12.63 98.34 12.68 98.53 12.68C98.85 12.68 99.82 12.64 100.24 12.64C100.66 12.64 105.17 12.68 105.49 12.68C105.62 12.68 105.77 12.66 105.77 12.49C105.77 12.07 105.81 11.23 105.81 10.53C105.81 10.39 105.66 10.39 105.53 10.39C105.42 10.39 105.29 10.39 105.29 10.51C105.28 11.06 105.28 11.41 105.25 11.76C105.22 12.01 105.22 12.04 105.13 12.04C104.97 12.04 102.34 12.08 100.84 12.08C100.77 12.08 100.73 10.11 100.69 8.26C100.69 8.06 100.73 8.09 100.87 8.09L103.15 8.09C103.85 8.09 103.88 8.20 103.88 8.30L103.88 9.00C103.88 9.14 104.06 9.14 104.17 9.14C104.27 9.14 104.40 9.13 104.40 9.02C104.40 8.83 104.37 8.33 104.37 7.83C104.37 7.32 104.40 6.83 104.40 6.71C104.40 6.59 104.26 6.58 104.16 6.58C104.05 6.58 103.88 6.59 103.88 6.72L103.88 7.45C103.88 7.62 103.43 7.63 103.15 7.63L100.81 7.63C100.70 7.63 100.69 7.63 100.69 7.45C100.67 6.75 100.66 6.06 100.66 5.46C100.66 5.12 100.66 3.71 100.74 3.71C101.98 3.71 104.48 3.75 104.48 3.81C104.48 3.99 104.44 4.83 104.44 4.89C104.44 5.04 104.51 5.10 104.69 5.10C104.89 5.10 104.96 5.08 104.96 4.94C104.96 3.85 105.01 3.36 105.01 3.09C105.01 2.91 104.93 2.90 104.73 2.90C104.54 2.90 104.54 2.95 104.51 3.11C104.50 3.25 104.57 3.25 103.66 3.25C103.04 3.25 100.90 3.29 100.13 3.29C99.64 3.29 98.70 3.25 98.60 3.25C98.48 3.25 98.42 3.30 98.42 3.49C98.42 3.72 98.49 3.74 98.66 3.74L99.32 3.74C99.37 3.74 99.44 4.79 99.44 5.71C99.44 5.80 99.50 8.27 99.50 9.83L99.50 11.17C99.50 11.84 99.47 12.18 99.44 12.18L98.59 12.18C98.36 12.18 98.31 12.21 98.31 12.39ZM113.71 12.46C113.71 12.63 113.72 12.70 113.90 12.70C114.06 12.70 115.29 12.64 115.68 12.64C116.54 12.64 117.42 12.70 118.27 12.70C120.89 12.70 123.28 11.07 123.28 7.91C123.28 4.89 120.95 3.07 117.91 3.07C117.35 3.07 116.09 3.23 115.05 3.23C114.58 3.23 114.11 3.22 114.06 3.22C113.88 3.22 113.86 3.32 113.86 3.49C113.86 3.68 113.93 3.70 114.06 3.70L115.02 3.67C115.05 3.67 115.05 4.20 115.05 4.72C115.05 5.91 114.97 12.21 114.88 12.21L113.99 12.21C113.81 12.21 113.71 12.22 113.71 12.46ZM116.28 11.40C116.28 9.46 116.28 7.52 116.30 5.60C116.30 5.03 116.34 3.61 116.38 3.60C116.68 3.53 117.26 3.51 117.61 3.51C120.18 3.51 121.79 5.75 121.79 7.73C121.79 8.95 121.74 12.25 117.07 12.25C116.80 12.25 116.40 12.25 116.30 12.21C116.28 12.19 116.28 11.79 116.28 11.40ZM141.19 12.39C141.19 12.63 141.22 12.68 141.41 12.68C141.74 12.68 142.70 12.64 143.12 12.64C143.54 12.64 148.05 12.68 148.37 12.68C148.50 12.68 148.65 12.66 148.65 12.49C148.65 12.07 148.69 11.23 148.69 10.53C148.69 10.39 148.54 10.39 148.41 10.39C148.30 10.39 148.18 10.39 148.18 10.51C148.16 11.06 148.16 11.41 148.13 11.76C148.11 12.01 148.11 12.04 148.01 12.04C147.85 12.04 145.22 12.08 143.72 12.08C143.65 12.08 143.61 10.11 143.57 8.26C143.57 8.06 143.61 8.09 143.75 8.09L146.03 8.09C146.73 8.09 146.76 8.20 146.76 8.30L146.76 9.00C146.76 9.14 146.94 9.14 147.06 9.14C147.15 9.14 147.28 9.13 147.28 9.02C147.28 8.83 147.25 8.33 147.25 7.83C147.25 7.32 147.28 6.83 147.28 6.71C147.28 6.59 147.14 6.58 147.04 6.58C146.93 6.58 146.76 6.59 146.76 6.72L146.76 7.45C146.76 7.62 146.31 7.63 146.03 7.63L143.70 7.63C143.58 7.63 143.57 7.63 143.57 7.45C143.56 6.75 143.54 6.06 143.54 5.46C143.54 5.12 143.54 3.71 143.63 3.71C144.86 3.71 147.36 3.75 147.36 3.81C147.36 3.99 147.32 4.83 147.32 4.89C147.32 5.04 147.39 5.10 147.57 5.10C147.77 5.10 147.84 5.08 147.84 4.94C147.84 3.85 147.90 3.36 147.90 3.09C147.90 2.91 147.81 2.90 147.62 2.90C147.42 2.90 147.42 2.95 147.39 3.11C147.38 3.25 147.45 3.25 146.54 3.25C145.92 3.25 143.78 3.29 143.01 3.29C142.52 3.29 141.58 3.25 141.48 3.25C141.36 3.25 141.30 3.30 141.30 3.49C141.30 3.72 141.37 3.74 141.54 3.74L142.20 3.74C142.25 3.74 142.32 4.79 142.32 5.71C142.32 5.80 142.38 8.27 142.38 9.83L142.38 11.17C142.38 11.84 142.35 12.18 142.32 12.18L141.47 12.18C141.25 12.18 141.19 12.21 141.19 12.39ZM156.66 12.39C156.66 12.63 156.67 12.68 156.87 12.68C157.05 12.68 157.43 12.64 158.05 12.64C158.68 12.64 159.24 12.68 159.56 12.68C159.73 12.68 159.73 12.61 159.73 12.40C159.73 12.24 159.73 12.18 159.56 12.18L158.35 12.18C158.31 12.18 158.30 11.54 158.30 10.79C158.30 9.46 158.31 7.48 158.31 5.99C158.31 5.25 158.31 4.84 158.33 4.28C158.33 4.02 158.40 4.14 158.52 4.28L165.41 12.66C165.49 12.75 165.58 12.89 165.69 12.89C165.80 12.89 165.87 12.77 165.87 12.54C165.87 12.39 166.04 6.65 166.05 4.48C166.05 4.06 166.08 3.70 166.11 3.70L166.74 3.70C166.96 3.70 167.02 3.68 167.02 3.49C167.02 3.25 167.02 3.19 166.82 3.19C166.63 3.19 166.19 3.23 165.63 3.23C165.02 3.23 164.22 3.19 164.12 3.19C163.95 3.19 163.95 3.26 163.95 3.47C163.95 3.64 163.95 3.70 164.12 3.70L165.42 3.70C165.44 3.70 165.44 4.33 165.44 4.44C165.44 5.85 165.47 8.33 165.47 9.70L165.47 10.29C165.47 10.57 165.45 10.65 165.23 10.37L159.54 3.39C159.43 3.25 159.40 3.19 159.24 3.19C159.15 3.19 158.77 3.23 158.47 3.23C158.17 3.23 157.09 3.19 156.90 3.19C156.73 3.19 156.70 3.26 156.70 3.47C156.70 3.64 156.73 3.70 156.90 3.70L157.81 3.70C157.81 4.17 157.77 8.53 157.70 10.79C157.67 11.69 157.68 12.18 157.57 12.18L156.93 12.18C156.70 12.18 156.66 12.19 156.66 12.39ZM175.06 12.39C175.06 12.63 175.08 12.68 175.28 12.68C175.60 12.68 176.57 12.64 176.99 12.64C177.41 12.64 181.92 12.68 182.24 12.68C182.36 12.68 182.52 12.66 182.52 12.49C182.52 12.07 182.56 11.23 182.56 10.53C182.56 10.39 182.41 10.39 182.28 10.39C182.17 10.39 182.04 10.39 182.04 10.51C182.03 11.06 182.03 11.41 182 11.76C181.97 12.01 181.97 12.04 181.87 12.04C181.72 12.04 179.09 12.08 177.59 12.08C177.52 12.08 177.48 10.11 177.44 8.26C177.44 8.06 177.48 8.09 177.62 8.09L179.90 8.09C180.60 8.09 180.63 8.20 180.63 8.30L180.63 9.00C180.63 9.14 180.81 9.14 180.92 9.14C181.02 9.14 181.15 9.13 181.15 9.02C181.15 8.83 181.12 8.33 181.12 7.83C181.12 7.32 181.15 6.83 181.15 6.71C181.15 6.59 181.01 6.58 180.91 6.58C180.80 6.58 180.63 6.59 180.63 6.72L180.63 7.45C180.63 7.62 180.18 7.63 179.90 7.63L177.56 7.63C177.45 7.63 177.44 7.63 177.44 7.45C177.42 6.75 177.41 6.06 177.41 5.46C177.41 5.12 177.41 3.71 177.49 3.71C178.72 3.71 181.23 3.75 181.23 3.81C181.23 3.99 181.19 4.83 181.19 4.89C181.19 5.04 181.26 5.10 181.44 5.10C181.64 5.10 181.71 5.08 181.71 4.94C181.71 3.85 181.76 3.36 181.76 3.09C181.76 2.91 181.68 2.90 181.48 2.90C181.29 2.90 181.29 2.95 181.26 3.11C181.24 3.25 181.31 3.25 180.40 3.25C179.79 3.25 177.65 3.29 176.88 3.29C176.39 3.29 175.45 3.25 175.35 3.25C175.22 3.25 175.17 3.30 175.17 3.49C175.17 3.72 175.24 3.74 175.41 3.74L176.06 3.74C176.12 3.74 176.19 4.79 176.19 5.71C176.19 5.80 176.25 8.27 176.25 9.83L176.25 11.17C176.25 11.84 176.22 12.18 176.19 12.18L175.34 12.18C175.11 12.18 175.06 12.21 175.06 12.39ZM190.53 3.51C190.53 3.72 190.60 3.79 190.79 3.79L191.60 3.77C191.70 3.77 191.74 6.61 191.74 8.55L191.74 10.42C191.74 11.30 191.73 12.18 191.69 12.18L191.09 12.18C190.86 12.18 190.79 12.19 190.79 12.39C190.79 12.63 190.83 12.68 191.03 12.68C191.16 12.68 191.98 12.64 192.40 12.64C192.82 12.64 193.59 12.68 193.91 12.68C194.08 12.68 194.11 12.61 194.11 12.40C194.11 12.24 194.08 12.18 193.91 12.18L193.10 12.18C193.03 12.18 192.95 9.18 192.95 8.37C192.95 8.30 192.95 8.26 193.06 8.26C193.45 8.26 194.05 8.27 194.35 8.27C196.59 8.32 196.73 10.00 196.73 11.68L196.73 12.49C196.73 12.61 196.78 12.64 196.88 12.64C196.88 12.64 198.32 12.68 198.80 12.68C198.97 12.68 199.02 12.64 199.02 12.53C199.02 12.24 198.97 12.18 198.81 12.18L198.17 12.18C198.07 12.18 198.04 12.14 198.02 11.31C197.93 8.99 196.56 8.34 195.65 8.05C195.51 8.01 195.54 8.01 195.65 7.95C196.24 7.69 197.55 6.94 197.55 5.63C197.55 3.63 195.86 3.21 194.46 3.21C194.14 3.21 192.85 3.29 192.43 3.29C192.01 3.29 191.03 3.26 190.81 3.26C190.62 3.26 190.53 3.28 190.53 3.51ZM192.95 7.80L192.95 4.40C192.95 4.05 192.98 3.68 193.02 3.68C193.23 3.65 193.51 3.65 193.73 3.65C195.03 3.65 196.28 4.47 196.28 5.82C196.28 6.99 195.73 7.57 195.08 7.88C195.03 7.90 194.99 7.90 194.92 7.90C194.45 7.88 193.73 7.88 193.13 7.87C192.96 7.87 192.95 7.85 192.95 7.80ZM206.57 7.91C206.57 11.40 208.94 12.89 211.53 12.89C213.42 12.89 215.42 11.89 215.42 11.58C215.42 11.12 215.43 10.68 215.43 10.33C215.43 9.81 215.45 9.56 215.57 9.56L216.01 9.56C216.15 9.56 216.16 9.39 216.16 9.30C216.16 9.18 216.15 9.06 216.01 9.06C215.78 9.06 215.42 9.10 214.75 9.10C214.30 9.10 213.56 9.07 212.87 9.06C212.73 9.06 212.73 9.24 212.73 9.35C212.73 9.45 212.76 9.56 212.88 9.56L214.10 9.56C214.14 9.56 214.20 9.87 214.20 10.33C214.20 10.82 214.19 11.41 214.16 11.65C214.14 11.76 213.50 12.39 211.92 12.39C209.68 12.39 208.08 10.29 208.08 7.94C208.08 5.42 209.64 3.54 211.64 3.54C213.53 3.54 214.70 4.87 214.70 5.03C214.70 5.15 214.65 6.12 214.65 6.17C214.65 6.31 214.69 6.36 214.96 6.36C215.15 6.36 215.22 6.33 215.22 6.15C215.22 5.43 215.26 3.75 215.26 3.56C215.26 3.36 215.17 3.33 214.96 3.33C214.73 3.33 214.70 3.39 214.70 3.56L214.70 3.91C214.70 3.99 214.66 4.02 214.54 3.92C214.26 3.72 213.26 3.08 211.69 3.08C208.85 3.08 206.57 4.79 206.57 7.91ZM223.50 3.44C223.50 3.68 223.58 3.70 223.75 3.70L224.15 3.70C224.28 3.70 226.53 7.74 226.94 8.50C227.00 8.60 227.04 8.65 227.04 8.81C227.04 10.50 227.02 12.18 226.90 12.18L226.18 12.18C225.96 12.18 225.92 12.19 225.92 12.39C225.92 12.63 225.93 12.68 226.13 12.68C226.32 12.68 227.14 12.64 227.72 12.64C228.55 12.64 229.08 12.68 229.40 12.68C229.57 12.68 229.60 12.61 229.60 12.40C229.60 12.24 229.57 12.18 229.40 12.18L228.44 12.18C228.34 12.18 228.31 9.72 228.31 8.22C228.31 8.18 228.31 8.15 228.35 8.09C228.90 7.22 230.85 3.70 230.92 3.70L231.39 3.70C231.56 3.70 231.66 3.68 231.66 3.44C231.66 3.22 231.57 3.19 231.39 3.19C231.17 3.19 230.93 3.23 230.33 3.23C229.74 3.23 229.40 3.19 229.24 3.19C229.04 3.19 229.00 3.25 229.00 3.49C229.00 3.68 229.07 3.70 229.29 3.70L230.02 3.70C230.03 3.70 230.05 3.71 230.05 3.74C230.05 4.05 228.48 6.99 228.10 7.71C227.99 7.92 227.99 7.88 227.88 7.67C227.47 6.89 226.18 4.56 225.89 3.85C225.83 3.71 225.82 3.70 226.00 3.70L226.83 3.70C227.05 3.70 227.08 3.68 227.08 3.49C227.08 3.25 227.04 3.19 226.88 3.19C226.65 3.19 226.03 3.23 225.23 3.23C224.42 3.23 223.93 3.19 223.75 3.19C223.57 3.19 223.50 3.21 223.50 3.44ZM248.81 5.01C248.81 5.17 248.99 5.17 249.12 5.17C249.27 5.17 249.31 5.15 249.33 4.97L249.44 3.89C249.45 3.81 250.00 3.75 250.75 3.75L252.74 3.75C252.80 3.75 252.83 4.35 252.83 4.97C252.83 6.43 252.77 12.18 252.64 12.18L251.78 12.18C251.55 12.18 251.51 12.19 251.51 12.39C251.51 12.63 251.52 12.68 251.72 12.68C252.04 12.68 253.02 12.64 253.44 12.64C253.86 12.64 254.80 12.68 255.12 12.68C255.29 12.68 255.32 12.61 255.32 12.40C255.32 12.24 255.29 12.18 255.12 12.18L254.13 12.18C254.10 12.18 254.10 11.76 254.10 11.31C254.10 9.56 254.18 5.96 254.18 5.92C254.20 5.18 254.20 3.75 254.30 3.75L255.91 3.75C256.62 3.75 257.45 3.78 257.45 3.85C257.45 3.99 257.40 4.90 257.40 4.97C257.40 5.12 257.47 5.17 257.66 5.17C257.85 5.17 257.92 5.17 257.92 5.03C257.92 3.93 257.98 3.40 257.98 3.14C257.98 2.94 257.89 2.94 257.70 2.94C257.54 2.94 257.49 2.98 257.47 3.16C257.47 3.23 256.83 3.28 255.99 3.28L250.99 3.28C250.33 3.28 249.52 3.28 249.52 3.21L249.52 3.07C249.52 2.94 249.40 2.94 249.30 2.94C249.07 2.94 249.05 3.00 249.03 3.19C248.98 3.89 248.81 4.97 248.81 5.01ZM265.73 3.51C265.73 3.72 265.80 3.79 266 3.79L266.81 3.77C266.91 3.77 266.95 6.61 266.95 8.55L266.95 10.42C266.95 11.30 266.94 12.18 266.90 12.18L266.29 12.18C266.07 12.18 266 12.19 266 12.39C266 12.63 266.04 12.68 266.24 12.68C266.36 12.68 267.19 12.64 267.61 12.64C268.03 12.64 268.80 12.68 269.12 12.68C269.29 12.68 269.32 12.61 269.32 12.40C269.32 12.24 269.29 12.18 269.12 12.18L268.31 12.18C268.24 12.18 268.16 9.18 268.16 8.37C268.16 8.30 268.16 8.26 268.27 8.26C268.66 8.26 269.26 8.27 269.56 8.27C271.80 8.32 271.94 10.00 271.94 11.68L271.94 12.49C271.94 12.61 271.99 12.64 272.09 12.64C272.09 12.64 273.53 12.68 274.01 12.68C274.18 12.68 274.23 12.64 274.23 12.53C274.23 12.24 274.18 12.18 274.02 12.18L273.38 12.18C273.28 12.18 273.25 12.14 273.22 11.31C273.14 8.99 271.77 8.34 270.86 8.05C270.72 8.01 270.75 8.01 270.86 7.95C271.45 7.69 272.76 6.94 272.76 5.63C272.76 3.63 271.07 3.21 269.67 3.21C269.35 3.21 268.06 3.29 267.64 3.29C267.22 3.29 266.24 3.26 266.01 3.26C265.83 3.26 265.73 3.28 265.73 3.51ZM268.16 7.80L268.16 4.40C268.16 4.05 268.18 3.68 268.23 3.68C268.44 3.65 268.72 3.65 268.94 3.65C270.24 3.65 271.49 4.47 271.49 5.82C271.49 6.99 270.94 7.57 270.28 7.88C270.24 7.90 270.20 7.90 270.13 7.90C269.65 7.88 268.94 7.88 268.34 7.87C268.17 7.87 268.16 7.85 268.16 7.80ZM281.57 12.39C281.57 12.63 281.57 12.68 281.76 12.68C281.93 12.68 282.25 12.64 282.83 12.64C283.44 12.64 283.99 12.68 284.14 12.68C284.31 12.68 284.31 12.61 284.31 12.40C284.31 12.24 284.31 12.18 284.14 12.18L283.07 12.18C283.07 12.18 283.05 12.18 283.05 12.17C283.07 11.87 283.84 9.90 284.19 9.02C284.26 8.83 284.27 8.79 284.48 8.79L287.31 8.79C287.45 8.79 287.45 8.81 287.52 9.03C287.78 9.77 288.50 11.89 288.50 12.17C288.50 12.18 288.48 12.18 288.48 12.18L287.71 12.18C287.49 12.18 287.48 12.19 287.48 12.39C287.48 12.63 287.49 12.68 287.66 12.68C287.98 12.68 288.85 12.64 289.27 12.64C289.69 12.64 290.36 12.68 290.57 12.68C290.71 12.68 290.72 12.61 290.72 12.40C290.72 12.24 290.71 12.18 290.57 12.18L290.08 12.18C289.98 12.18 288.96 9.34 288.40 7.78L286.72 3.07C286.71 3.00 286.64 2.94 286.55 2.94C286.43 2.94 286.33 3.16 286.24 3.35C286.09 3.71 285.85 3.84 285.74 4.13L284.26 7.57C284.07 8.01 282.37 12.18 282.24 12.18L281.82 12.18C281.60 12.18 281.57 12.19 281.57 12.39ZM284.47 8.33C284.47 8.30 284.49 8.23 284.54 8.13L285.91 4.77C285.95 4.66 285.98 4.61 286.01 4.61C286.02 4.61 286.03 4.63 286.08 4.77L287.24 8.18C287.27 8.25 287.28 8.29 287.28 8.32C287.28 8.36 287.25 8.37 287.15 8.37L284.65 8.37C284.47 8.37 284.47 8.34 284.47 8.33ZM298.48 12.39C298.48 12.63 298.49 12.68 298.69 12.68C298.87 12.68 299.25 12.64 299.87 12.64C300.50 12.64 301.06 12.68 301.38 12.68C301.55 12.68 301.55 12.61 301.55 12.40C301.55 12.24 301.55 12.18 301.38 12.18L300.17 12.18C300.13 12.18 300.12 11.54 300.12 10.79C300.12 9.46 300.13 7.48 300.13 5.99C300.13 5.25 300.13 4.84 300.15 4.28C300.15 4.02 300.22 4.14 300.34 4.28L307.23 12.66C307.31 12.75 307.40 12.89 307.51 12.89C307.62 12.89 307.69 12.77 307.69 12.54C307.69 12.39 307.86 6.65 307.87 4.48C307.87 4.06 307.90 3.70 307.93 3.70L308.56 3.70C308.78 3.70 308.84 3.68 308.84 3.49C308.84 3.25 308.84 3.19 308.64 3.19C308.45 3.19 308.01 3.23 307.45 3.23C306.84 3.23 306.04 3.19 305.94 3.19C305.77 3.19 305.77 3.26 305.77 3.47C305.77 3.64 305.77 3.70 305.94 3.70L307.24 3.70C307.26 3.70 307.26 4.33 307.26 4.44C307.26 5.85 307.29 8.33 307.29 9.70L307.29 10.29C307.29 10.57 307.27 10.65 307.05 10.37L301.36 3.39C301.25 3.25 301.22 3.19 301.06 3.19C300.97 3.19 300.59 3.23 300.29 3.23C299.99 3.23 298.91 3.19 298.72 3.19C298.55 3.19 298.52 3.26 298.52 3.47C298.52 3.64 298.55 3.70 298.72 3.70L299.63 3.70C299.63 4.17 299.59 8.53 299.52 10.79C299.49 11.69 299.50 12.18 299.39 12.18L298.75 12.18C298.52 12.18 298.48 12.19 298.48 12.39ZM317.09 5.77C317.09 9.07 322.07 8.20 322.07 10.65C322.07 11.59 321.23 12.31 320.25 12.31C319.42 12.31 317.83 11.83 317.80 11.47L317.72 10.15C317.70 9.97 317.63 9.91 317.45 9.91L317.38 9.91C317.17 9.91 317.17 10.00 317.17 10.12C317.17 10.32 317.28 11.66 317.31 12.17C317.32 12.38 318.58 12.85 320.12 12.85C321.69 12.85 323.30 11.87 323.30 10.11C323.30 6.79 318.33 7.87 318.33 5.32C318.33 4.31 319.12 3.56 320.15 3.56C321.17 3.56 322.27 4.58 322.27 4.89C322.27 5.01 322.22 5.73 322.22 5.78C322.22 5.92 322.27 5.99 322.53 5.99C322.77 5.99 322.78 5.94 322.78 5.75C322.78 5.04 322.87 3.68 322.87 3.53C322.87 3.30 322.83 3.29 322.56 3.29C322.34 3.29 322.32 3.32 322.31 3.53C322.31 3.61 322.29 3.78 322.25 3.78C322.20 3.78 322.11 3.74 322.04 3.68C321.24 3.14 320.63 3.08 320.12 3.08C318.60 3.08 317.09 4.17 317.09 5.77ZM331.13 12.39C331.13 12.63 331.17 12.68 331.37 12.68C331.69 12.68 332.44 12.64 333.16 12.64C333.82 12.64 334.61 12.68 334.84 12.68C335.01 12.68 335.03 12.61 335.03 12.40C335.03 12.24 335.01 12.18 334.84 12.18L333.87 12.18C333.77 12.18 333.75 9.55 333.75 7.76L333.75 5.87C333.75 5.14 333.77 3.70 333.87 3.70L334.78 3.70C335.01 3.70 335.03 3.68 335.03 3.49C335.03 3.25 335.01 3.19 334.84 3.19C334.52 3.19 333.84 3.23 333.19 3.23C332.37 3.23 331.66 3.19 331.44 3.19C331.25 3.19 331.18 3.21 331.18 3.44C331.18 3.68 331.27 3.70 331.44 3.70L332.36 3.70C332.40 3.70 332.47 4.79 332.47 5.71L332.47 7.08C332.47 8.92 332.46 12.18 332.35 12.18L331.42 12.18C331.20 12.18 331.13 12.19 331.13 12.39ZM342.66 5.01C342.66 5.17 342.85 5.17 342.97 5.17C343.13 5.17 343.17 5.15 343.18 4.97L343.29 3.89C343.31 3.81 343.85 3.75 344.61 3.75L346.60 3.75C346.65 3.75 346.68 4.35 346.68 4.97C346.68 6.43 346.63 12.18 346.50 12.18L345.63 12.18C345.41 12.18 345.37 12.19 345.37 12.39C345.37 12.63 345.38 12.68 345.58 12.68C345.90 12.68 346.88 12.64 347.30 12.64C347.72 12.64 348.66 12.68 348.98 12.68C349.15 12.68 349.17 12.61 349.17 12.40C349.17 12.24 349.15 12.18 348.98 12.18L347.98 12.18C347.96 12.18 347.96 11.76 347.96 11.31C347.96 9.56 348.04 5.96 348.04 5.92C348.05 5.18 348.05 3.75 348.15 3.75L349.76 3.75C350.48 3.75 351.30 3.78 351.30 3.85C351.30 3.99 351.26 4.90 351.26 4.97C351.26 5.12 351.33 5.17 351.51 5.17C351.71 5.17 351.78 5.17 351.78 5.03C351.78 3.93 351.83 3.40 351.83 3.14C351.83 2.94 351.75 2.94 351.55 2.94C351.40 2.94 351.34 2.98 351.33 3.16C351.33 3.23 350.69 3.28 349.85 3.28L344.85 3.28C344.19 3.28 343.38 3.28 343.38 3.21L343.38 3.07C343.38 2.94 343.25 2.94 343.15 2.94C342.93 2.94 342.90 3.00 342.89 3.19C342.83 3.89 342.66 4.97 342.66 5.01ZM359.45 12.39C359.45 12.63 359.49 12.68 359.69 12.68C360.01 12.68 360.77 12.64 361.48 12.64C362.14 12.64 362.94 12.68 363.16 12.68C363.33 12.68 363.36 12.61 363.36 12.40C363.36 12.24 363.33 12.18 363.16 12.18L362.19 12.18C362.10 12.18 362.07 9.55 362.07 7.76L362.07 5.87C362.07 5.14 362.10 3.70 362.19 3.70L363.10 3.70C363.33 3.70 363.36 3.68 363.36 3.49C363.36 3.25 363.33 3.19 363.16 3.19C362.84 3.19 362.17 3.23 361.51 3.23C360.70 3.23 359.98 3.19 359.76 3.19C359.58 3.19 359.51 3.21 359.51 3.44C359.51 3.68 359.59 3.70 359.76 3.70L360.68 3.70C360.72 3.70 360.79 4.79 360.79 5.71L360.79 7.08C360.79 8.92 360.78 12.18 360.67 12.18L359.74 12.18C359.52 12.18 359.45 12.19 359.45 12.39ZM371.32 8.15C371.32 11.17 373.66 12.80 375.91 12.80C378.70 12.80 380.67 10.89 380.67 8.06C380.67 5.33 378.92 3.11 376.12 3.11C373.52 3.11 371.32 5.10 371.32 8.15ZM372.72 7.77C372.72 5.64 374.01 3.58 375.98 3.58C378.22 3.58 379.30 5.81 379.30 7.94C379.30 10.08 378.20 12.32 375.93 12.32C373.94 12.32 372.72 10.28 372.72 7.77ZM388.78 12.39C388.78 12.63 388.79 12.68 388.99 12.68C389.17 12.68 389.55 12.64 390.17 12.64C390.80 12.64 391.36 12.68 391.68 12.68C391.85 12.68 391.85 12.61 391.85 12.40C391.85 12.24 391.85 12.18 391.68 12.18L390.47 12.18C390.43 12.18 390.42 11.54 390.42 10.79C390.42 9.46 390.43 7.48 390.43 5.99C390.43 5.25 390.43 4.84 390.45 4.28C390.45 4.02 390.52 4.14 390.64 4.28L397.53 12.66C397.61 12.75 397.70 12.89 397.81 12.89C397.92 12.89 397.99 12.77 397.99 12.54C397.99 12.39 398.16 6.65 398.17 4.48C398.17 4.06 398.20 3.70 398.23 3.70L398.86 3.70C399.08 3.70 399.14 3.68 399.14 3.49C399.14 3.25 399.14 3.19 398.94 3.19C398.75 3.19 398.31 3.23 397.75 3.23C397.14 3.23 396.34 3.19 396.24 3.19C396.07 3.19 396.07 3.26 396.07 3.47C396.07 3.64 396.07 3.70 396.24 3.70L397.54 3.70C397.56 3.70 397.56 4.33 397.56 4.44C397.56 5.85 397.59 8.33 397.59 9.70L397.59 10.29C397.59 10.57 397.57 10.65 397.35 10.37L391.66 3.39C391.55 3.25 391.52 3.19 391.36 3.19C391.27 3.19 390.89 3.23 390.59 3.23C390.29 3.23 389.21 3.19 389.02 3.19C388.85 3.19 388.82 3.26 388.82 3.47C388.82 3.64 388.85 3.70 389.02 3.70L389.93 3.70C389.93 4.17 389.89 8.53 389.82 10.79C389.79 11.69 389.80 12.18 389.69 12.18L389.05 12.18C388.82 12.18 388.78 12.19 388.78 12.39Z"></path></g></svg>