<?xml version="1.0" encoding="utf-8"?>
<!-- Generator: Adobe Illustrator 19.0.0, SVG Export Plug-In . SVG Version: 6.00 Build 0)  -->
<svg version="1.1" id="layer" xmlns="http://www.w3.org/2000/svg" xmlns:xlink="http://www.w3.org/1999/xlink" x="0px" y="0px"
	 viewBox="-153 -46 652 652" style="enable-background:new -153 -46 652 652;" xml:space="preserve">
<style type="text/css">
	.st0{fill:#55565A;}
	.st1{fill:#008996;}
</style>
<path class="st0" d="M189.2,66.6c0-6.7,3.6-10.3,10.3-10.3h9.9c6.7,0,9.9,3.6,9.9,10.3v14.6c0,6.7-3.2,10.3-9.9,10.3h-9.9
	c-6.7,0-10.3-3.6-10.3-10.3V66.6z M189.2,128c0-6.7,3.6-10.3,10.3-10.3h9.9c6.7,0,9.9,3.6,9.9,10.3v166.9c0,6.4-3.2,9.9-9.9,9.9
	h-9.9c-6.7,0-10.3-3.6-10.3-9.9V128z"/>
<path class="st0" d="M271.7,128.7c-1.8-6.7,1.4-11,7.8-11h11.4c6.7,0,10.3,2.1,11.7,8.2l37.3,150.9l37.3-150.9
	c1.4-6,5.3-8.2,11.7-8.2h10.7c6.7,0,9.6,4.3,8.2,11l-44,161.9c-2.8,9.6-8.9,14.2-18.1,14.2h-12.1c-9.2,0-15.3-4.6-17.8-14.2
	L271.7,128.7z"/>
<path class="st0" d="M519.2,276.8c6.4-1.1,9.9,3.2,9.9,9.9v7.8c0,6.7-3.6,9.2-9.2,10.3c-6,1.1-10.7,1.4-16.7,1.4
	c-25.6,0-43.3-11.7-43.3-46.5V63c0-6.7,3.6-10.3,10.3-10.3h9.6c6.7,0,10.3,3.6,10.3,10.3v194.2c0,15.6,7.5,21,17.8,21
	C512.5,278.2,515,277.5,519.2,276.8z"/>
<path class="st0" d="M114.8,178.6c0,84.6-68.6,153.2-153.2,153.2s-153.2-68.6-153.2-153.2S-123,25.5-38.4,25.5S114.8,94,114.8,178.6
	z M-110.6,61.6c26.3-10.2,56.5-12.3,83-1.5c43.3,17.8,69.2,64.5,60.5,110.6c-8.8,46-48.3,79.6-95.1,81.2c21.6,22,54.4,25,82.2,14.5
	c58.9-22.1,69.7-78.8,70.7-83.6c1.9-9.6,2.5-19.4,1.8-29.1c-4.9-69-74-116.3-139.8-112.2C-69.6,42.8-91.5,49.9-110.6,61.6z
	 M33.2,295.7c-26.1,10.2-56,12.3-82.3,1.7c-43.4-17.4-69.8-64-61.3-110.1c8.5-46.3,48.2-80.4,95.2-81.9
	c-25.3-25.7-64.9-24.8-95.1-8.8c-56.2,29.7-76.6,102.5-43.3,156.7c15.6,25.5,40.2,44.6,68.2,54.6c14.9,5.3,30.8,8.1,46.7,8.2
	c8.7,0,17.3-0.9,25.9-2.5C9.5,309.4,25.4,300.5,33.2,295.7z M-17.6,121.2c-17.8,1.3-39.3,9.7-53.9,24.3
	c-14.6,14.6-23.1,36.1-24.3,53.9c-1.3,17.8,4.6,32,4.6,32s14.2,5.9,32,4.6c17.8-1.3,39.3-9.7,53.9-24.3
	c14.6-14.6,23.1-36.1,24.3-53.9c1.3-17.8-4.6-32-4.6-32S0.2,119.9-17.6,121.2z"/>
<path class="st1" d="M107,140.3c-2.7-15.4-8.5-30.2-16.5-43.6c-8-13.4-18.3-25.3-30.2-35.4c-13-11-27.9-19.6-43.7-25.6
	c-16.4-6.2-33.8-9.7-51.4-10.1C-54,25-73,28.2-91,34.8c-17.2,6.3-33.3,15.7-47.3,27.6c-13.7,11.7-25.3,25.8-34,41.6
	c-9.1,16.5-15.2,34.7-17.9,53.4c-2.5,17.6-1.8,35.6,1.9,53.1c3.7,17,10.3,33.4,19.3,48.2c2.2,3.6,4.5,7,7,10.4
	c-11.1-15.7-18.5-34-21.8-52.9c-3.3-19.1-2.3-38.9,3.3-57.5c5-16.5,13.5-31.9,24.5-45.1c11-13.2,24.6-24.3,39.9-32.2
	C-97.7,72-76.7,67-56.2,69c17.6,1.8,34.1,9.3,47.3,21c12.5,11.2,21.8,25.9,25.8,42.2c4.2,17,2.6,35.1-3.8,51.3
	c-6.6,16.7-18.4,31.1-33.8,40.3c-16.5,9.9-36.5,14.1-55.6,11.5c-5.2-0.7-10.4-1.9-15.4-3.6c4.9,17.8,17.4,32.9,32.8,42.7
	c18,11.5,39.6,15.3,60.6,12.5c21.6-2.8,42.1-12.3,59-25.9c15.7-12.7,28.5-29,36.8-47.4c9.2-20.4,13-43.2,10.6-65.5
	C107.9,145.7,107.5,143,107,140.3C100.7,104.5,111.5,165.9,107,140.3z M82.1,209.6c-9.4,19.5-24.5,36.3-42.9,47.6
	C19.1,269.6-6,275.8-29.4,270.3c-12.3-2.9-23.7-9.4-32.6-18.4c22.1-0.7,44-8.7,61-22.7c17.4-14.3,29.1-34.7,33.7-56.6
	c5-23.8,1.2-48.8-11.1-69.7C10.2,83.3-7.8,67.7-28.9,59.5c-23.1-9-48.9-8.3-72.4-1.1c-3,0.9-6,2-9,3.1c19.1-11.7,41-18.8,63.3-20.1
	c20.7-1.3,41.6,2.2,60.8,10c19,7.7,36.1,19.5,49.6,34.9c13.7,15.5,23.8,34.4,27.8,54.8c4,20.5,1.7,42-5.9,61.4
	C84.3,204.9,83.2,207.2,82.1,209.6C72.3,230,92.1,188.8,82.1,209.6z"/>
<path class="st0" d="M197.5,417.2c0,7.8,5.3,10.9,11.8,10.9c6.4,0,11.8-3,11.8-10.7v-0.1c0-17.6-32.3-9.1-32.3-35.4v-0.1
	c0-12.3,8.5-19.3,20.4-19.3c11.9,0,20.4,7.1,20.4,19.4v0.3c0,2.1-1.1,3.1-3.2,3.1h-3.3c-2,0-2.9-1-2.9-2.8v-0.3
	c0-7.3-4.7-10.8-11-10.8c-6.4,0-11.1,3.4-11.1,10.7v0.1c0,17.6,32.3,9.1,32.3,35.4v0.1c0,12.5-8.8,19.3-21.3,19.3
	c-12.1,0-20.8-7.1-20.8-19.3v-0.5c0-2.1,1-3.1,3.1-3.1h3.4c2,0,2.9,0.9,2.9,2.8L197.5,417.2L197.5,417.2z"/>
<path class="st0" d="M233.4,367.2c-0.5-1.9,0.3-3.5,2.4-3.5h3.9c2.1,0,3.2,0.8,3.6,2.8l14.8,60.4l14.8-60.4c0.4-2,1.4-2.8,3.5-2.8
	h3.7c2.1,0,2.9,1.6,2.4,3.5l-16.8,64.2c-0.7,3-2.7,4.4-5.7,4.4h-4.2c-3,0-4.9-1.4-5.7-4.4L233.4,367.2z"/>
<path class="st0" d="M288.6,366.8c0-2.1,1.1-3.1,3.1-3.1h33.1c2.1,0,3.1,1,3.1,3.1v2.6c0,2.1-1,3.2-3.1,3.2H298v22.2h21.1
	c2.1,0,3.1,1,3.1,3.1v2.6c0,2.1-1,3.2-3.1,3.2H298V427h26.8c2.1,0,3.1,1.1,3.1,3.2v2.6c0,2.1-1,3.1-3.1,3.1h-33.1
	c-2,0-3.1-1-3.1-3.1V366.8z"/>
<path class="st0" d="M333.4,384.7c0-14.7,9.3-22.2,21.7-22.2c12.4,0,21.7,7.4,21.7,22.2v48c0,2.1-1,3.1-3.1,3.1h-3.1
	c-2.1,0-3.1-1-3.1-3.1v-47.1c0-10.6-5.6-14.2-12.4-14.2s-12.4,3.6-12.4,14.2v47.1c0,2.1-1,3.1-3.1,3.1h-3.1c-2.1,0-3.1-1-3.1-3.1
	L333.4,384.7L333.4,384.7z"/>
<path class="st0" d="M394.4,417.2c0,7.8,5.3,10.9,11.8,10.9c6.4,0,11.8-3,11.8-10.7v-0.1c0-17.6-32.3-9.1-32.3-35.4v-0.1
	c0-12.3,8.5-19.3,20.4-19.3c11.9,0,20.4,7.1,20.4,19.4v0.3c0,2.1-1.1,3.1-3.2,3.1h-3.3c-2,0-2.9-1-2.9-2.8v-0.3
	c0-7.3-4.7-10.8-11-10.8c-6.4,0-11.1,3.4-11.1,10.7v0.1c0,17.6,32.3,9.1,32.3,35.4v0.1c0,12.5-8.8,19.3-21.3,19.3
	c-12.1,0-20.8-7.1-20.8-19.3v-0.5c0-2.1,1-3.1,3.1-3.1h3.4c2,0,2.9,0.9,2.9,2.8C394.4,416.9,394.4,417.2,394.4,417.2z"/>
<path class="st0" d="M439.1,363.7h3.1c2.1,0,3.2,1,3.2,3.1v32l24.1-32.9c0.9-1.3,2-2.2,4-2.2h4.4c2,0,2.6,2.4,1.5,3.7l-20.4,26.4
	l20.9,38.5c0.8,1.5,0.1,3.6-2,3.6h-4c-2.2,0-3.2-0.6-4.1-2.5l-16.8-31.8l-7.7,10.1v21c0,2.1-1.1,3.1-3.2,3.1h-3.1
	c-2,0-3.1-1-3.1-3.1v-66C436.1,364.7,437.2,363.7,439.1,363.7z"/>
<path class="st0" d="M485.9,384.7c0-14.7,9.3-22.2,21.7-22.2c12.4,0,21.7,7.4,21.7,22.2v48c0,2.1-1,3.1-3.1,3.1H523
	c-2.1,0-3.1-1-3.1-3.1v-21.2h-24.7v21.2c0,2.1-1,3.1-3.1,3.1h-3.1c-2.1,0-3.1-1-3.1-3.1L485.9,384.7L485.9,384.7z M495.1,402.7h24.7
	v-17c0-10.6-5.6-14.2-12.4-14.2s-12.4,3.6-12.4,14.2V402.7z"/>
<g>
	<path class="st0" d="M-74.6,459.9c-5.9,0-10.9,3.2-10.9,12.7v48.7c0,2.1-1,3.1-3.1,3.1h-3.1c-2.1,0-3.1-1-3.1-3.1v-48.7
		c0-9.5-4.8-12.7-10.8-12.7c-6.1,0-10.9,3.2-10.9,12.7v48.7c0,2.1-1,3.1-3.1,3.1h-3.1c-2.1,0-3.1-1-3.1-3.1v-50.6
		c0-13.1,8.2-19.6,19.2-19.6c7.5,0,13.5,3.1,16.6,9.3c3-6.2,9-9.3,16.5-9.3c11,0,19.3,6.5,19.3,19.6v50.6c0,2.1-1.1,3.1-3.2,3.1
		h-3.1c-2.1,0-3.1-1-3.1-3.1v-48.7C-63.7,463.1-68.5,459.9-74.6,459.9z"/>
	<path class="st0" d="M-39.8,452.1h3.1c2.1,0,3.2,1,3.2,3.1v66c0,2.1-1.1,3.1-3.2,3.1h-3.1c-2,0-3.1-1-3.1-3.1v-66
		C-42.9,453.2-41.8,452.1-39.8,452.1z"/>
	<g>
		<path class="st0" d="M-22.2,455.2c0-2.1,1.1-3.1,3.1-3.1h3.1c2.1,0,3.2,1,3.2,3.1v60.2h24.2c2.1,0,3.1,1.1,3.1,3.2v2.6
			c0,2.1-1,3.1-3.1,3.1h-30.5c-2,0-3.1-1-3.1-3.1C-22.2,521.2-22.2,455.2-22.2,455.2z"/>
		<path class="st0" d="M47.9,455.2c0-2.1,1-3.1,3.1-3.1h3.1c2.1,0,3.1,1,3.1,3.1v49.9c0,13.5-8.6,20.3-20,20.3
			c-11.4,0-20-6.8-20-20.3v-0.8c0-2.1,1-3.1,3.1-3.1h3.4c2,0,2.8,0.9,2.8,2.8v0.3c0,9.2,4.8,12.3,10.7,12.3s10.7-3.1,10.7-12.3
			C47.9,504.3,47.9,455.2,47.9,455.2z"/>
	</g>
	<path class="st0" d="M88.5,451c12.5,0,21.8,7.4,21.8,22.2v30.2c0,14.7-9.3,22.1-21.8,22.1c-12.4,0-21.7-7.3-21.7-22.1v-30.2
		C66.9,458.4,76.1,451,88.5,451z M84.8,442.7c0,2.1-1,3-3,3h-3.7c-2,0-3-0.9-3-3v-3.8c0-2,1-2.9,3-2.9h3.7c2,0,3,0.9,3,2.9V442.7z
		 M76.1,502.4c0,10.6,5.7,14.2,12.4,14.2c6.8,0,12.4-3.6,12.4-14.2v-28.3c0-10.6-5.6-14.2-12.4-14.2c-6.7,0-12.4,3.6-12.4,14.2
		V502.4z M101.9,442.7c0,2.1-1,3-3,3h-3.7c-2,0-3-0.9-3-3v-3.8c0-2,1-2.9,3-2.9h3.7c2,0,3,0.9,3,2.9V442.7z"/>
	<path class="st0" d="M123.1,452.1h3.1c2.1,0,3.2,1,3.2,3.1v66c0,2.1-1.1,3.1-3.2,3.1h-3.1c-2,0-3.1-1-3.1-3.1v-66
		C120,453.2,121.1,452.1,123.1,452.1z"/>
	<path class="st0" d="M139.2,473.2c0-14.7,9.3-22.2,21.7-22.2s21.7,7.4,21.7,22.2v48c0,2.1-1,3.1-3.1,3.1h-3.1c-2.1,0-3.1-1-3.1-3.1
		v-47.1c0-10.6-5.6-14.2-12.4-14.2s-12.4,3.6-12.4,14.2v47.1c0,2.1-1,3.1-3.1,3.1h-3.1c-2.1,0-3.1-1-3.1-3.1
		C139.2,521.2,139.2,473.2,139.2,473.2z"/>
	<path class="st0" d="M197.5,505.7c0,7.8,5.3,10.9,11.8,10.9c6.4,0,11.8-3,11.8-10.7v-0.1c0-17.6-32.3-9.1-32.3-35.4v-0.1
		c0-12.3,8.5-19.3,20.4-19.3c11.9,0,20.4,7.1,20.4,19.4v0.3c0,2.1-1.1,3.1-3.2,3.1h-3.3c-2,0-2.9-1-2.9-2.8v-0.3
		c0-7.3-4.7-10.8-11-10.8c-6.4,0-11.1,3.4-11.1,10.7v0.1c0,17.6,32.3,9.1,32.3,35.4v0.1c0,12.5-8.8,19.3-21.3,19.3
		c-12.1,0-20.8-7.1-20.8-19.3v-0.5c0-2.1,1-3.1,3.1-3.1h3.4c2,0,2.9,0.9,2.9,2.8L197.5,505.7L197.5,505.7z"/>
	<path class="st0" d="M249.7,461h-13.4c-2.1,0-3.1-1.1-3.1-3.2v-2.6c0-2.1,1-3.1,3.1-3.1h36.3c2.1,0,3.1,1,3.1,3.1v2.6
		c0,2.1-1,3.2-3.1,3.2h-13.5v60.2c0,2.1-1,3.1-3.1,3.1h-3.1c-2.1,0-3.2-1-3.2-3.1L249.7,461L249.7,461z"/>
	<path class="st0" d="M284.5,452.1h3.1c2.1,0,3.2,1,3.2,3.1v66c0,2.1-1.1,3.1-3.2,3.1h-3.1c-2,0-3.1-1-3.1-3.1v-66
		C281.4,453.2,282.5,452.1,284.5,452.1z"/>
	<path class="st0" d="M312.9,461h-13.4c-2.1,0-3.1-1.1-3.1-3.2v-2.6c0-2.1,1-3.1,3.1-3.1h36.3c2.1,0,3.1,1,3.1,3.1v2.6
		c0,2.1-1,3.2-3.1,3.2h-13.5v60.2c0,2.1-1,3.1-3.1,3.1h-3.1c-2.1,0-3.2-1-3.2-3.1C312.9,521.2,312.9,461,312.9,461z"/>
	<path class="st0" d="M347.7,452.1h3.1c2.1,0,3.1,1,3.1,3.1v47.1c0,10.6,5.6,14.2,12.4,14.2s12.4-3.6,12.4-14.2v-47.1
		c0-2.1,1-3.1,3.1-3.1h3.1c2.1,0,3.1,1,3.1,3.1v48.2c0,14.7-9.3,22.1-21.7,22.1c-12.4,0-21.7-7.3-21.7-22.1v-48.2
		C344.6,453.2,345.6,452.1,347.7,452.1z"/>
	<path class="st0" d="M410.1,461h-13.4c-2.1,0-3.1-1.1-3.1-3.2v-2.6c0-2.1,1-3.1,3.1-3.1H433c2.1,0,3.1,1,3.1,3.1v2.6
		c0,2.1-1,3.2-3.1,3.2h-13.5v60.2c0,2.1-1,3.1-3.1,3.1h-3.1c-2.1,0-3.2-1-3.2-3.1L410.1,461L410.1,461z"/>
	<path class="st0" d="M441.7,455.2c0-2.1,1.1-3.1,3.1-3.1h33.1c2.1,0,3.1,1,3.1,3.1v2.6c0,2.1-1,3.2-3.1,3.2h-26.8v22.2h21.1
		c2.1,0,3.1,1,3.1,3.1v2.6c0,2.1-1,3.2-3.1,3.2h-21.1v23.4h26.8c2.1,0,3.1,1.1,3.1,3.2v2.6c0,2.1-1,3.1-3.1,3.1h-33.1
		c-2,0-3.1-1-3.1-3.1V455.2z"/>
	<path class="st0" d="M503.2,461h-13.4c-2.1,0-3.1-1.1-3.1-3.2v-2.6c0-2.1,1-3.1,3.1-3.1h36.3c2.1,0,3.1,1,3.1,3.1v2.6
		c0,2.1-1,3.2-3.1,3.2h-13.5v60.2c0,2.1-1,3.1-3.1,3.1h-3.1c-2.1,0-3.2-1-3.2-3.1L503.2,461L503.2,461z"/>
</g>
</svg>
